<mxfile host="app.diagrams.net" modified="2024-04-22T17:16:57.145Z" agent="Mozilla/5.0 (X11; Linux x86_64) AppleWebKit/537.36 (KHTML, like Gecko) Chrome/124.0.0.0 Safari/537.36" etag="3y8tkYGhUU8yX-lIFzTw" version="24.2.7" type="github">
  <diagram name="AS-Electrical-Deployment" id="HhKDwpE1ps_H-06lBrID">
    <mxGraphModel dx="1912" dy="1016" grid="1" gridSize="10" guides="1" tooltips="1" connect="1" arrows="1" fold="1" page="1" pageScale="1" pageWidth="827" pageHeight="1169" math="0" shadow="0">
      <root>
        <mxCell id="0" />
        <mxCell id="1" parent="0" />
        <mxCell id="aZmOVXOk3B2EYtA5Geev-39" value="" style="rounded=0;whiteSpace=wrap;html=1;" parent="1" vertex="1">
          <mxGeometry x="1478" y="100" width="120" height="170" as="geometry" />
        </mxCell>
        <mxCell id="CrHd_MsES68OAFLLBE-K-4" value="&lt;b&gt;CAN BUS - Line 1&lt;br&gt;&lt;/b&gt;" style="rounded=1;whiteSpace=wrap;html=1;fillColor=#e1d5e7;strokeColor=#9673a6;" parent="1" vertex="1">
          <mxGeometry x="970" y="546.25" width="256" height="60" as="geometry" />
        </mxCell>
        <mxCell id="CrHd_MsES68OAFLLBE-K-30" value="" style="endArrow=classic;html=1;rounded=0;strokeWidth=3;fillColor=#e1d5e7;strokeColor=#9673a6;startArrow=classic;startFill=1;shape=link;entryX=0.002;entryY=0.579;entryDx=0;entryDy=0;entryPerimeter=0;exitX=0.316;exitY=-0.012;exitDx=0;exitDy=0;exitPerimeter=0;" parent="1" source="aZmOVXOk3B2EYtA5Geev-26" target="CrHd_MsES68OAFLLBE-K-4" edge="1">
          <mxGeometry relative="1" as="geometry">
            <mxPoint x="820" y="582" as="sourcePoint" />
            <mxPoint x="890.9499999999998" y="581.89" as="targetPoint" />
          </mxGeometry>
        </mxCell>
        <mxCell id="CrHd_MsES68OAFLLBE-K-31" value="" style="shape=message;html=1;outlineConnect=0;" parent="CrHd_MsES68OAFLLBE-K-30" vertex="1">
          <mxGeometry width="20" height="14" relative="1" as="geometry">
            <mxPoint x="-10" y="-7" as="offset" />
          </mxGeometry>
        </mxCell>
        <mxCell id="CrHd_MsES68OAFLLBE-K-34" value="" style="endArrow=classic;html=1;rounded=0;strokeWidth=3;fillColor=#e1d5e7;strokeColor=#9673a6;startArrow=classic;startFill=1;shape=link;entryX=0.037;entryY=1;entryDx=0;entryDy=0;entryPerimeter=0;exitX=0.999;exitY=0.839;exitDx=0;exitDy=0;exitPerimeter=0;" parent="1" source="CrHd_MsES68OAFLLBE-K-4" target="aZmOVXOk3B2EYtA5Geev-2" edge="1">
          <mxGeometry relative="1" as="geometry">
            <mxPoint x="1230" y="598" as="sourcePoint" />
            <mxPoint x="1172" y="585" as="targetPoint" />
          </mxGeometry>
        </mxCell>
        <mxCell id="CrHd_MsES68OAFLLBE-K-35" value="" style="shape=message;html=1;outlineConnect=0;" parent="CrHd_MsES68OAFLLBE-K-34" vertex="1">
          <mxGeometry width="20" height="14" relative="1" as="geometry">
            <mxPoint x="-10" y="-7" as="offset" />
          </mxGeometry>
        </mxCell>
        <mxCell id="l7KghhQer-1Jxl8H2hNQ-9" value="&lt;span style=&quot;font-size: 15px;&quot;&gt;&lt;b&gt;&lt;font style=&quot;vertical-align: inherit;&quot;&gt;&lt;font style=&quot;vertical-align: inherit;&quot;&gt;&lt;font style=&quot;vertical-align: inherit;&quot;&gt;&lt;font style=&quot;vertical-align: inherit;&quot;&gt;&lt;font style=&quot;vertical-align: inherit;&quot;&gt;&lt;font style=&quot;vertical-align: inherit;&quot;&gt;Description:&lt;br&gt;&lt;/font&gt;&lt;/font&gt;&lt;/font&gt;&lt;/font&gt;&lt;/font&gt;&lt;/font&gt;&lt;/b&gt;&lt;/span&gt;" style="text;html=1;strokeColor=none;fillColor=none;align=center;verticalAlign=middle;whiteSpace=wrap;rounded=0;" parent="1" vertex="1">
          <mxGeometry x="1483" y="110" width="110" height="30" as="geometry" />
        </mxCell>
        <mxCell id="l7KghhQer-1Jxl8H2hNQ-10" value="" style="endArrow=classic;html=1;rounded=0;strokeWidth=2;" parent="1" edge="1">
          <mxGeometry relative="1" as="geometry">
            <mxPoint x="1483" y="150" as="sourcePoint" />
            <mxPoint x="1513" y="150" as="targetPoint" />
          </mxGeometry>
        </mxCell>
        <mxCell id="l7KghhQer-1Jxl8H2hNQ-13" value="" style="endArrow=classic;html=1;rounded=0;strokeWidth=2;fillColor=#fff2cc;strokeColor=#d6b656;" parent="1" edge="1">
          <mxGeometry relative="1" as="geometry">
            <mxPoint x="1483" y="180" as="sourcePoint" />
            <mxPoint x="1513" y="180" as="targetPoint" />
          </mxGeometry>
        </mxCell>
        <mxCell id="l7KghhQer-1Jxl8H2hNQ-14" value="&lt;span style=&quot;font-size: 15px;&quot;&gt;Analog&lt;/span&gt;" style="text;html=1;strokeColor=none;fillColor=none;align=center;verticalAlign=middle;whiteSpace=wrap;rounded=0;" parent="1" vertex="1">
          <mxGeometry x="1503" y="140" width="80" height="20" as="geometry" />
        </mxCell>
        <mxCell id="l7KghhQer-1Jxl8H2hNQ-15" value="&lt;span style=&quot;font-size: 15px;&quot;&gt;&lt;font style=&quot;vertical-align: inherit;&quot;&gt;&lt;font color=&quot;#d6b656&quot; style=&quot;vertical-align: inherit;&quot;&gt;Digital&lt;/font&gt;&lt;/font&gt;&lt;/span&gt;" style="text;html=1;strokeColor=none;fillColor=none;align=center;verticalAlign=middle;whiteSpace=wrap;rounded=0;" parent="1" vertex="1">
          <mxGeometry x="1503" y="170" width="80" height="20" as="geometry" />
        </mxCell>
        <mxCell id="l7KghhQer-1Jxl8H2hNQ-16" value="" style="endArrow=classic;html=1;rounded=0;strokeWidth=2;fillColor=#e1d5e7;strokeColor=#9673a6;" parent="1" edge="1">
          <mxGeometry relative="1" as="geometry">
            <mxPoint x="1483" y="210" as="sourcePoint" />
            <mxPoint x="1513" y="210" as="targetPoint" />
          </mxGeometry>
        </mxCell>
        <mxCell id="l7KghhQer-1Jxl8H2hNQ-17" value="&lt;span style=&quot;font-size: 15px;&quot;&gt;&lt;font color=&quot;#9673a6&quot;&gt;CAN&lt;/font&gt;&lt;/span&gt;" style="text;html=1;strokeColor=none;fillColor=none;align=center;verticalAlign=middle;whiteSpace=wrap;rounded=0;" parent="1" vertex="1">
          <mxGeometry x="1503" y="200" width="70" height="20" as="geometry" />
        </mxCell>
        <mxCell id="l7KghhQer-1Jxl8H2hNQ-92" value="" style="endArrow=none;html=1;rounded=0;strokeWidth=3;fillColor=#e1d5e7;strokeColor=#9673a6;exitX=0.354;exitY=-0.002;exitDx=0;exitDy=0;endFill=0;startArrow=classic;startFill=1;exitPerimeter=0;entryX=0.28;entryY=1.002;entryDx=0;entryDy=0;entryPerimeter=0;" parent="1" edge="1">
          <mxGeometry relative="1" as="geometry">
            <mxPoint x="1071.624" y="546.1299999999999" as="sourcePoint" />
            <mxPoint x="1072.2" y="172.35000000000025" as="targetPoint" />
            <Array as="points" />
          </mxGeometry>
        </mxCell>
        <mxCell id="l7KghhQer-1Jxl8H2hNQ-93" value="" style="shape=message;html=1;outlineConnect=0;" parent="l7KghhQer-1Jxl8H2hNQ-92" vertex="1">
          <mxGeometry width="20" height="14" relative="1" as="geometry">
            <mxPoint x="-9" y="2" as="offset" />
          </mxGeometry>
        </mxCell>
        <mxCell id="l7KghhQer-1Jxl8H2hNQ-96" value="Right Wheel RPM" style="rounded=0;whiteSpace=wrap;html=1;fontSize=13;" parent="1" vertex="1">
          <mxGeometry x="1130" y="120.00000000000023" width="90" height="50" as="geometry" />
        </mxCell>
        <mxCell id="l7KghhQer-1Jxl8H2hNQ-97" value="Left Wheel &lt;br style=&quot;font-size: 13px;&quot;&gt;RPM" style="rounded=0;whiteSpace=wrap;html=1;fontSize=13;" parent="1" vertex="1">
          <mxGeometry x="949.9999999999999" y="120.00000000000023" width="90" height="50" as="geometry" />
        </mxCell>
        <mxCell id="l7KghhQer-1Jxl8H2hNQ-98" value="Hydraulic Line Pressure Sensor" style="rounded=0;whiteSpace=wrap;html=1;fontSize=13;" parent="1" vertex="1">
          <mxGeometry x="1220" y="120.00000000000023" width="90" height="50" as="geometry" />
        </mxCell>
        <mxCell id="l7KghhQer-1Jxl8H2hNQ-117" value="" style="endArrow=classic;html=1;rounded=0;strokeWidth=3;fillColor=#fff2cc;strokeColor=#d6b656;exitX=0.176;exitY=1.023;exitDx=0;exitDy=0;entryX=0;entryY=0;entryDx=0;entryDy=0;entryPerimeter=0;exitPerimeter=0;" parent="1" source="l7KghhQer-1Jxl8H2hNQ-97" target="aZmOVXOk3B2EYtA5Geev-26" edge="1">
          <mxGeometry relative="1" as="geometry">
            <mxPoint x="610" y="896.64" as="sourcePoint" />
            <mxPoint x="609.3000000000002" y="955.1999999999999" as="targetPoint" />
            <Array as="points">
              <mxPoint x="870" y="230" />
            </Array>
          </mxGeometry>
        </mxCell>
        <mxCell id="l7KghhQer-1Jxl8H2hNQ-118" value="" style="shape=message;html=1;outlineConnect=0;" parent="l7KghhQer-1Jxl8H2hNQ-117" vertex="1">
          <mxGeometry width="20" height="14" relative="1" as="geometry">
            <mxPoint y="-31" as="offset" />
          </mxGeometry>
        </mxCell>
        <mxCell id="l7KghhQer-1Jxl8H2hNQ-123" value="" style="endArrow=classic;html=1;rounded=0;strokeWidth=3;fillColor=#fff2cc;strokeColor=#d6b656;entryX=-0.01;entryY=0.108;entryDx=0;entryDy=0;entryPerimeter=0;exitX=0.5;exitY=1;exitDx=0;exitDy=0;" parent="1" source="l7KghhQer-1Jxl8H2hNQ-96" target="aZmOVXOk3B2EYtA5Geev-18" edge="1">
          <mxGeometry relative="1" as="geometry">
            <mxPoint x="978.9999999999999" y="362.83000000000004" as="sourcePoint" />
            <mxPoint x="1129" y="346.0000000000001" as="targetPoint" />
            <Array as="points">
              <mxPoint x="1260" y="210" />
            </Array>
          </mxGeometry>
        </mxCell>
        <mxCell id="l7KghhQer-1Jxl8H2hNQ-124" value="" style="shape=message;html=1;outlineConnect=0;" parent="l7KghhQer-1Jxl8H2hNQ-123" vertex="1">
          <mxGeometry width="20" height="14" relative="1" as="geometry">
            <mxPoint x="-7" y="-7" as="offset" />
          </mxGeometry>
        </mxCell>
        <mxCell id="l7KghhQer-1Jxl8H2hNQ-128" value="" style="endArrow=none;html=1;rounded=0;strokeWidth=3;fillColor=#e1d5e7;strokeColor=#9673a6;exitX=0.5;exitY=0;exitDx=0;exitDy=0;endFill=0;startArrow=classic;startFill=1;entryX=0;entryY=0;entryDx=180;entryDy=96.42;entryPerimeter=0;" parent="1" source="CrHd_MsES68OAFLLBE-K-4" target="aZmOVXOk3B2EYtA5Geev-18" edge="1">
          <mxGeometry relative="1" as="geometry">
            <mxPoint x="982" y="546.25" as="sourcePoint" />
            <mxPoint x="867" y="740" as="targetPoint" />
          </mxGeometry>
        </mxCell>
        <mxCell id="l7KghhQer-1Jxl8H2hNQ-129" value="" style="shape=message;html=1;outlineConnect=0;" parent="l7KghhQer-1Jxl8H2hNQ-128" vertex="1">
          <mxGeometry width="20" height="14" relative="1" as="geometry">
            <mxPoint x="-10" y="-7" as="offset" />
          </mxGeometry>
        </mxCell>
        <mxCell id="aZmOVXOk3B2EYtA5Geev-2" value="&lt;b style=&quot;text-align: center;&quot;&gt;AS Processing Unit&lt;br&gt;(Computer / ASPU)&lt;/b&gt;" style="verticalAlign=top;align=left;spacingTop=8;spacingLeft=2;spacingRight=12;shape=cube;size=10;direction=south;fontStyle=4;html=1;whiteSpace=wrap;" parent="1" vertex="1">
          <mxGeometry x="1406" y="590.5" width="192" height="450" as="geometry" />
        </mxCell>
        <mxCell id="aZmOVXOk3B2EYtA5Geev-9" value="&lt;div style=&quot;text-align: center;&quot;&gt;&lt;span style=&quot;background-color: initial;&quot;&gt;&lt;b&gt;Steering Motor&lt;/b&gt;&lt;/span&gt;&lt;/div&gt;" style="verticalAlign=top;align=left;spacingTop=8;spacingLeft=2;spacingRight=12;shape=cube;size=10;direction=south;fontStyle=4;html=1;whiteSpace=wrap;" parent="1" vertex="1">
          <mxGeometry x="1378" y="290" width="220" height="270" as="geometry" />
        </mxCell>
        <mxCell id="aZmOVXOk3B2EYtA5Geev-62" value="" style="fontStyle=1;align=center;verticalAlign=top;childLayout=stackLayout;horizontal=1;horizontalStack=0;resizeParent=1;resizeParentMax=0;resizeLast=0;marginBottom=0;" parent="1" vertex="1">
          <mxGeometry x="1430" y="644.5" width="140" height="391" as="geometry" />
        </mxCell>
        <mxCell id="aZmOVXOk3B2EYtA5Geev-63" value="&lt;b&gt;ROS2 AS System&lt;br&gt;&lt;/b&gt;" style="html=1;align=left;spacingLeft=4;verticalAlign=top;strokeColor=none;fillColor=none;whiteSpace=wrap;" parent="aZmOVXOk3B2EYtA5Geev-62" vertex="1">
          <mxGeometry width="140" height="40" as="geometry" />
        </mxCell>
        <mxCell id="aZmOVXOk3B2EYtA5Geev-64" value="" style="shape=module;jettyWidth=10;jettyHeight=4;strokeColor=#3399FF;" parent="aZmOVXOk3B2EYtA5Geev-63" vertex="1">
          <mxGeometry x="1" width="16" height="20" relative="1" as="geometry">
            <mxPoint x="-25" y="9" as="offset" />
          </mxGeometry>
        </mxCell>
        <mxCell id="aZmOVXOk3B2EYtA5Geev-65" value="" style="line;strokeWidth=1;fillColor=none;align=left;verticalAlign=middle;spacingTop=-1;spacingLeft=3;spacingRight=3;rotatable=0;labelPosition=right;points=[];portConstraint=eastwest;" parent="aZmOVXOk3B2EYtA5Geev-62" vertex="1">
          <mxGeometry y="40" width="140" height="8" as="geometry" />
        </mxCell>
        <mxCell id="aZmOVXOk3B2EYtA5Geev-66" value="provided interfaces" style="html=1;align=center;spacingLeft=4;verticalAlign=top;strokeColor=none;fillColor=none;whiteSpace=wrap;fontStyle=1" parent="aZmOVXOk3B2EYtA5Geev-62" vertex="1">
          <mxGeometry y="48" width="140" height="25" as="geometry" />
        </mxCell>
        <mxCell id="aZmOVXOk3B2EYtA5Geev-67" value="&lt;font color=&quot;#9673a6&quot;&gt;Steering Command&lt;/font&gt;" style="html=1;align=left;spacingLeft=4;verticalAlign=top;strokeColor=none;fillColor=none;whiteSpace=wrap;" parent="aZmOVXOk3B2EYtA5Geev-62" vertex="1">
          <mxGeometry y="73" width="140" height="25" as="geometry" />
        </mxCell>
        <mxCell id="aZmOVXOk3B2EYtA5Geev-83" value="&lt;font color=&quot;#9673a6&quot;&gt;Throttle Command&lt;/font&gt;" style="html=1;align=left;spacingLeft=4;verticalAlign=top;strokeColor=none;fillColor=none;whiteSpace=wrap;" parent="aZmOVXOk3B2EYtA5Geev-62" vertex="1">
          <mxGeometry y="98" width="140" height="25" as="geometry" />
        </mxCell>
        <mxCell id="aNWwgpqA71NvFxte948c-44" value="&lt;font color=&quot;#9673a6&quot;&gt;Emergency&lt;/font&gt;" style="html=1;align=left;spacingLeft=4;verticalAlign=top;strokeColor=none;fillColor=none;whiteSpace=wrap;" parent="aZmOVXOk3B2EYtA5Geev-62" vertex="1">
          <mxGeometry y="123" width="140" height="25" as="geometry" />
        </mxCell>
        <mxCell id="aZmOVXOk3B2EYtA5Geev-255" value="&lt;font color=&quot;#9673a6&quot;&gt;Mission Finished&lt;/font&gt;" style="html=1;align=left;spacingLeft=4;verticalAlign=top;strokeColor=none;fillColor=none;whiteSpace=wrap;" parent="aZmOVXOk3B2EYtA5Geev-62" vertex="1">
          <mxGeometry y="148" width="140" height="25" as="geometry" />
        </mxCell>
        <mxCell id="aZmOVXOk3B2EYtA5Geev-68" value="" style="line;strokeWidth=1;fillColor=none;align=left;verticalAlign=middle;spacingTop=-1;spacingLeft=3;spacingRight=3;rotatable=0;labelPosition=right;points=[];portConstraint=eastwest;" parent="aZmOVXOk3B2EYtA5Geev-62" vertex="1">
          <mxGeometry y="173" width="140" height="8" as="geometry" />
        </mxCell>
        <mxCell id="aZmOVXOk3B2EYtA5Geev-69" value="required interfaces" style="html=1;align=center;spacingLeft=4;verticalAlign=top;strokeColor=none;fillColor=none;whiteSpace=wrap;fontStyle=1" parent="aZmOVXOk3B2EYtA5Geev-62" vertex="1">
          <mxGeometry y="181" width="140" height="25" as="geometry" />
        </mxCell>
        <mxCell id="aZmOVXOk3B2EYtA5Geev-84" value="&lt;font color=&quot;#9673a6&quot;&gt;3-Axis IMU&lt;/font&gt;" style="html=1;align=left;spacingLeft=4;verticalAlign=top;strokeColor=none;fillColor=none;whiteSpace=wrap;" parent="aZmOVXOk3B2EYtA5Geev-62" vertex="1">
          <mxGeometry y="206" width="140" height="25" as="geometry" />
        </mxCell>
        <mxCell id="aZmOVXOk3B2EYtA5Geev-85" value="&lt;font color=&quot;#9673a6&quot;&gt;Wheel RPM Right&lt;/font&gt;" style="html=1;align=left;spacingLeft=4;verticalAlign=top;strokeColor=none;fillColor=none;whiteSpace=wrap;" parent="aZmOVXOk3B2EYtA5Geev-62" vertex="1">
          <mxGeometry y="231" width="140" height="25" as="geometry" />
        </mxCell>
        <mxCell id="sZuSeQ67okOJ5UxKlKqD-4" value="&lt;font color=&quot;#00cc00&quot;&gt;Pointcloud&lt;/font&gt;" style="html=1;align=left;spacingLeft=4;verticalAlign=top;strokeColor=none;fillColor=none;whiteSpace=wrap;" parent="aZmOVXOk3B2EYtA5Geev-62" vertex="1">
          <mxGeometry y="256" width="140" height="25" as="geometry" />
        </mxCell>
        <mxCell id="aZmOVXOk3B2EYtA5Geev-86" value="&lt;font color=&quot;#9673a6&quot;&gt;Wheel RPM Left - CAN&lt;/font&gt;" style="html=1;align=left;spacingLeft=4;verticalAlign=top;strokeColor=none;fillColor=none;whiteSpace=wrap;" parent="aZmOVXOk3B2EYtA5Geev-62" vertex="1">
          <mxGeometry y="281" width="140" height="25" as="geometry" />
        </mxCell>
        <mxCell id="aZmOVXOk3B2EYtA5Geev-103" value="&lt;font color=&quot;#9673a6&quot;&gt;Steering Angle&lt;/font&gt;" style="html=1;align=left;spacingLeft=4;verticalAlign=top;strokeColor=none;fillColor=none;whiteSpace=wrap;" parent="aZmOVXOk3B2EYtA5Geev-62" vertex="1">
          <mxGeometry y="306" width="140" height="25" as="geometry" />
        </mxCell>
        <mxCell id="aZmOVXOk3B2EYtA5Geev-119" value="&lt;font color=&quot;#9673a6&quot;&gt;Selected Mission&lt;/font&gt;" style="html=1;align=left;spacingLeft=4;verticalAlign=top;strokeColor=none;fillColor=none;whiteSpace=wrap;" parent="aZmOVXOk3B2EYtA5Geev-62" vertex="1">
          <mxGeometry y="331" width="140" height="30" as="geometry" />
        </mxCell>
        <mxCell id="aZmOVXOk3B2EYtA5Geev-70" value="&lt;font color=&quot;#9673a6&quot;&gt;ASStatus&lt;/font&gt;" style="html=1;align=left;spacingLeft=4;verticalAlign=top;strokeColor=none;fillColor=none;whiteSpace=wrap;" parent="aZmOVXOk3B2EYtA5Geev-62" vertex="1">
          <mxGeometry y="361" width="140" height="30" as="geometry" />
        </mxCell>
        <mxCell id="aZmOVXOk3B2EYtA5Geev-120" value="" style="fontStyle=1;align=center;verticalAlign=top;childLayout=stackLayout;horizontal=1;horizontalStack=0;resizeParent=1;resizeParentMax=0;resizeLast=0;marginBottom=0;" parent="1" vertex="1">
          <mxGeometry x="1406" y="350" width="150" height="181" as="geometry" />
        </mxCell>
        <mxCell id="aZmOVXOk3B2EYtA5Geev-121" value="&lt;b&gt;Steering&lt;/b&gt;" style="html=1;align=left;spacingLeft=4;verticalAlign=top;strokeColor=none;fillColor=none;whiteSpace=wrap;" parent="aZmOVXOk3B2EYtA5Geev-120" vertex="1">
          <mxGeometry width="150" height="40" as="geometry" />
        </mxCell>
        <mxCell id="aZmOVXOk3B2EYtA5Geev-122" value="" style="shape=module;jettyWidth=10;jettyHeight=4;" parent="aZmOVXOk3B2EYtA5Geev-121" vertex="1">
          <mxGeometry x="1" width="16" height="20" relative="1" as="geometry">
            <mxPoint x="-25" y="9" as="offset" />
          </mxGeometry>
        </mxCell>
        <mxCell id="aZmOVXOk3B2EYtA5Geev-123" value="" style="line;strokeWidth=1;fillColor=none;align=left;verticalAlign=middle;spacingTop=-1;spacingLeft=3;spacingRight=3;rotatable=0;labelPosition=right;points=[];portConstraint=eastwest;" parent="aZmOVXOk3B2EYtA5Geev-120" vertex="1">
          <mxGeometry y="40" width="150" height="8" as="geometry" />
        </mxCell>
        <mxCell id="aZmOVXOk3B2EYtA5Geev-124" value="provided interfaces" style="html=1;align=center;spacingLeft=4;verticalAlign=top;strokeColor=none;fillColor=none;whiteSpace=wrap;fontStyle=1" parent="aZmOVXOk3B2EYtA5Geev-120" vertex="1">
          <mxGeometry y="48" width="150" height="25" as="geometry" />
        </mxCell>
        <mxCell id="aZmOVXOk3B2EYtA5Geev-125" value="&lt;font color=&quot;#9673a6&quot;&gt;Steering Angle&lt;/font&gt;" style="html=1;align=left;spacingLeft=4;verticalAlign=top;strokeColor=none;fillColor=none;whiteSpace=wrap;" parent="aZmOVXOk3B2EYtA5Geev-120" vertex="1">
          <mxGeometry y="73" width="150" height="25" as="geometry" />
        </mxCell>
        <mxCell id="NGaI6VRKh7LVpuEDAku1-8" value="&lt;font color=&quot;#9673a6&quot;&gt;Steer Alive&lt;/font&gt;" style="html=1;align=left;spacingLeft=4;verticalAlign=top;strokeColor=none;fillColor=none;whiteSpace=wrap;" parent="aZmOVXOk3B2EYtA5Geev-120" vertex="1">
          <mxGeometry y="98" width="150" height="25" as="geometry" />
        </mxCell>
        <mxCell id="aZmOVXOk3B2EYtA5Geev-128" value="" style="line;strokeWidth=1;fillColor=none;align=left;verticalAlign=middle;spacingTop=-1;spacingLeft=3;spacingRight=3;rotatable=0;labelPosition=right;points=[];portConstraint=eastwest;" parent="aZmOVXOk3B2EYtA5Geev-120" vertex="1">
          <mxGeometry y="123" width="150" height="8" as="geometry" />
        </mxCell>
        <mxCell id="aZmOVXOk3B2EYtA5Geev-129" value="required interfaces" style="html=1;align=center;spacingLeft=4;verticalAlign=top;strokeColor=none;fillColor=none;whiteSpace=wrap;fontStyle=1" parent="aZmOVXOk3B2EYtA5Geev-120" vertex="1">
          <mxGeometry y="131" width="150" height="25" as="geometry" />
        </mxCell>
        <mxCell id="aZmOVXOk3B2EYtA5Geev-130" value="&lt;font color=&quot;#9673a6&quot;&gt;Steering Command&lt;/font&gt;" style="html=1;align=left;spacingLeft=4;verticalAlign=top;strokeColor=none;fillColor=none;whiteSpace=wrap;" parent="aZmOVXOk3B2EYtA5Geev-120" vertex="1">
          <mxGeometry y="156" width="150" height="25" as="geometry" />
        </mxCell>
        <mxCell id="aZmOVXOk3B2EYtA5Geev-161" value="MICRO" style="swimlane;whiteSpace=wrap;html=1;" parent="1" vertex="1">
          <mxGeometry x="1388" y="325" width="190" height="225" as="geometry" />
        </mxCell>
        <mxCell id="aZmOVXOk3B2EYtA5Geev-185" value="&lt;b&gt;Caixa 1&lt;/b&gt;" style="shape=umlFrame;whiteSpace=wrap;html=1;pointerEvents=0;recursiveResize=0;container=1;collapsible=0;width=160;" parent="1" vertex="1">
          <mxGeometry x="1090" y="248" width="220" height="230" as="geometry" />
        </mxCell>
        <mxCell id="aZmOVXOk3B2EYtA5Geev-18" value="&lt;b&gt;Teensy C1 PCB&lt;/b&gt;" style="verticalAlign=top;align=left;spacingTop=8;spacingLeft=2;spacingRight=12;shape=cube;size=10;direction=south;fontStyle=4;html=1;whiteSpace=wrap;" parent="aZmOVXOk3B2EYtA5Geev-185" vertex="1">
          <mxGeometry x="7.16" y="40" width="182.84" height="180" as="geometry" />
        </mxCell>
        <mxCell id="YzPvoAI_dSwJ99V7AxGa-81" value="" style="fontStyle=1;align=center;verticalAlign=top;childLayout=stackLayout;horizontal=1;horizontalStack=0;resizeParent=1;resizeParentMax=0;resizeLast=0;marginBottom=0;" parent="aZmOVXOk3B2EYtA5Geev-185" vertex="1">
          <mxGeometry x="20" y="80" width="140" height="131" as="geometry" />
        </mxCell>
        <mxCell id="YzPvoAI_dSwJ99V7AxGa-82" value="&lt;b&gt;Teensy C1&lt;/b&gt;" style="html=1;align=left;spacingLeft=4;verticalAlign=top;strokeColor=none;fillColor=none;whiteSpace=wrap;" parent="YzPvoAI_dSwJ99V7AxGa-81" vertex="1">
          <mxGeometry width="140" height="40" as="geometry" />
        </mxCell>
        <mxCell id="YzPvoAI_dSwJ99V7AxGa-83" value="" style="shape=module;jettyWidth=10;jettyHeight=4;strokeColor=#3399FF;" parent="YzPvoAI_dSwJ99V7AxGa-82" vertex="1">
          <mxGeometry x="1" width="16" height="20" relative="1" as="geometry">
            <mxPoint x="-25" y="9" as="offset" />
          </mxGeometry>
        </mxCell>
        <mxCell id="YzPvoAI_dSwJ99V7AxGa-84" value="" style="line;strokeWidth=1;fillColor=none;align=left;verticalAlign=middle;spacingTop=-1;spacingLeft=3;spacingRight=3;rotatable=0;labelPosition=right;points=[];portConstraint=eastwest;" parent="YzPvoAI_dSwJ99V7AxGa-81" vertex="1">
          <mxGeometry y="40" width="140" height="8" as="geometry" />
        </mxCell>
        <mxCell id="YzPvoAI_dSwJ99V7AxGa-85" value="provided interfaces" style="html=1;align=center;spacingLeft=4;verticalAlign=top;strokeColor=none;fillColor=none;whiteSpace=wrap;fontStyle=1" parent="YzPvoAI_dSwJ99V7AxGa-81" vertex="1">
          <mxGeometry y="48" width="140" height="25" as="geometry" />
        </mxCell>
        <mxCell id="YzPvoAI_dSwJ99V7AxGa-86" value="&lt;font color=&quot;#9673a6&quot;&gt;Right Wheel RPM&lt;/font&gt;" style="html=1;align=left;spacingLeft=4;verticalAlign=top;strokeColor=none;fillColor=none;whiteSpace=wrap;" parent="YzPvoAI_dSwJ99V7AxGa-81" vertex="1">
          <mxGeometry y="73" width="140" height="25" as="geometry" />
        </mxCell>
        <mxCell id="aNWwgpqA71NvFxte948c-46" value="&lt;font color=&quot;#9673a6&quot;&gt;Hydraulic Line Pressure&lt;/font&gt;" style="html=1;align=left;spacingLeft=4;verticalAlign=top;strokeColor=none;fillColor=none;whiteSpace=wrap;" parent="YzPvoAI_dSwJ99V7AxGa-81" vertex="1">
          <mxGeometry y="98" width="140" height="25" as="geometry" />
        </mxCell>
        <mxCell id="YzPvoAI_dSwJ99V7AxGa-90" value="" style="line;strokeWidth=1;fillColor=none;align=left;verticalAlign=middle;spacingTop=-1;spacingLeft=3;spacingRight=3;rotatable=0;labelPosition=right;points=[];portConstraint=eastwest;" parent="YzPvoAI_dSwJ99V7AxGa-81" vertex="1">
          <mxGeometry y="123" width="140" height="8" as="geometry" />
        </mxCell>
        <mxCell id="aZmOVXOk3B2EYtA5Geev-277" value="" style="shape=table;startSize=0;container=1;collapsible=0;childLayout=tableLayout;fontSize=16;" parent="1" vertex="1">
          <mxGeometry x="120" y="1200" width="803" height="950" as="geometry" />
        </mxCell>
        <mxCell id="aZmOVXOk3B2EYtA5Geev-318" style="shape=tableRow;horizontal=0;startSize=0;swimlaneHead=0;swimlaneBody=0;strokeColor=inherit;top=0;left=0;bottom=0;right=0;collapsible=0;dropTarget=0;fillColor=none;points=[[0,0.5],[1,0.5]];portConstraint=eastwest;fontSize=16;" parent="aZmOVXOk3B2EYtA5Geev-277" vertex="1">
          <mxGeometry width="803" height="45" as="geometry" />
        </mxCell>
        <mxCell id="aZmOVXOk3B2EYtA5Geev-319" value="Component" style="shape=partialRectangle;html=1;whiteSpace=wrap;connectable=0;strokeColor=default;overflow=hidden;fillColor=none;top=0;left=0;bottom=0;right=0;pointerEvents=1;fontSize=16;fontStyle=1;strokeWidth=1;perimeterSpacing=0;" parent="aZmOVXOk3B2EYtA5Geev-318" vertex="1">
          <mxGeometry width="228" height="45" as="geometry">
            <mxRectangle width="228" height="45" as="alternateBounds" />
          </mxGeometry>
        </mxCell>
        <mxCell id="aZmOVXOk3B2EYtA5Geev-320" value="Description" style="shape=partialRectangle;html=1;whiteSpace=wrap;connectable=0;strokeColor=default;overflow=hidden;fillColor=none;top=0;left=0;bottom=0;right=0;pointerEvents=1;fontSize=16;fontStyle=1;strokeWidth=1;perimeterSpacing=0;" parent="aZmOVXOk3B2EYtA5Geev-318" vertex="1">
          <mxGeometry x="228" width="225" height="45" as="geometry">
            <mxRectangle width="225" height="45" as="alternateBounds" />
          </mxGeometry>
        </mxCell>
        <mxCell id="aZmOVXOk3B2EYtA5Geev-321" value="Placement" style="shape=partialRectangle;html=1;whiteSpace=wrap;connectable=0;strokeColor=default;overflow=hidden;fillColor=none;top=0;left=0;bottom=0;right=0;pointerEvents=1;fontSize=16;fontStyle=1;strokeWidth=1;perimeterSpacing=0;" parent="aZmOVXOk3B2EYtA5Geev-318" vertex="1">
          <mxGeometry x="453" width="350" height="45" as="geometry">
            <mxRectangle width="350" height="45" as="alternateBounds" />
          </mxGeometry>
        </mxCell>
        <mxCell id="aZmOVXOk3B2EYtA5Geev-278" value="" style="shape=tableRow;horizontal=0;startSize=0;swimlaneHead=0;swimlaneBody=0;strokeColor=inherit;top=0;left=0;bottom=0;right=0;collapsible=0;dropTarget=0;fillColor=none;points=[[0,0.5],[1,0.5]];portConstraint=eastwest;fontSize=16;" parent="aZmOVXOk3B2EYtA5Geev-277" vertex="1">
          <mxGeometry y="45" width="803" height="45" as="geometry" />
        </mxCell>
        <mxCell id="aZmOVXOk3B2EYtA5Geev-279" value="3-Axis IMU" style="shape=partialRectangle;html=1;whiteSpace=wrap;connectable=0;strokeColor=inherit;overflow=hidden;fillColor=none;top=0;left=0;bottom=0;right=0;pointerEvents=1;fontSize=16;" parent="aZmOVXOk3B2EYtA5Geev-278" vertex="1">
          <mxGeometry width="228" height="45" as="geometry">
            <mxRectangle width="228" height="45" as="alternateBounds" />
          </mxGeometry>
        </mxCell>
        <mxCell id="aZmOVXOk3B2EYtA5Geev-280" value="&amp;nbsp;&lt;a style=&quot;border-color: var(--border-color); font-size: 12px; text-align: left; background-color: initial;&quot; href=&quot;https://drive.google.com/file/d/1T_5FwRE4PddFsDdqUnHjJMyZ8fscjoum/view?usp=drive_link&quot;&gt;Bosch MM7.10&lt;/a&gt;" style="shape=partialRectangle;html=1;whiteSpace=wrap;connectable=0;strokeColor=inherit;overflow=hidden;fillColor=none;top=0;left=0;bottom=0;right=0;pointerEvents=1;fontSize=16;" parent="aZmOVXOk3B2EYtA5Geev-278" vertex="1">
          <mxGeometry x="228" width="225" height="45" as="geometry">
            <mxRectangle width="225" height="45" as="alternateBounds" />
          </mxGeometry>
        </mxCell>
        <mxCell id="aZmOVXOk3B2EYtA5Geev-281" value="Under Seat" style="shape=partialRectangle;html=1;whiteSpace=wrap;connectable=0;strokeColor=inherit;overflow=hidden;fillColor=none;top=0;left=0;bottom=0;right=0;pointerEvents=1;fontSize=16;" parent="aZmOVXOk3B2EYtA5Geev-278" vertex="1">
          <mxGeometry x="453" width="350" height="45" as="geometry">
            <mxRectangle width="350" height="45" as="alternateBounds" />
          </mxGeometry>
        </mxCell>
        <mxCell id="aZmOVXOk3B2EYtA5Geev-282" value="" style="shape=tableRow;horizontal=0;startSize=0;swimlaneHead=0;swimlaneBody=0;strokeColor=inherit;top=0;left=0;bottom=0;right=0;collapsible=0;dropTarget=0;fillColor=none;points=[[0,0.5],[1,0.5]];portConstraint=eastwest;fontSize=16;" parent="aZmOVXOk3B2EYtA5Geev-277" vertex="1">
          <mxGeometry y="90" width="803" height="45" as="geometry" />
        </mxCell>
        <mxCell id="aZmOVXOk3B2EYtA5Geev-283" value="Wheel Encoder" style="shape=partialRectangle;html=1;whiteSpace=wrap;connectable=0;strokeColor=inherit;overflow=hidden;fillColor=none;top=0;left=0;bottom=0;right=0;pointerEvents=1;fontSize=16;" parent="aZmOVXOk3B2EYtA5Geev-282" vertex="1">
          <mxGeometry width="228" height="45" as="geometry">
            <mxRectangle width="228" height="45" as="alternateBounds" />
          </mxGeometry>
        </mxCell>
        <mxCell id="aZmOVXOk3B2EYtA5Geev-284" value="&lt;font style=&quot;font-size: 12px;&quot;&gt;&lt;a href=&quot;https://www.auto-doc.pt/bosch/674403&quot;&gt;BOSCH 0 265 007 905 Sensor&lt;/a&gt;&lt;/font&gt;" style="shape=partialRectangle;html=1;whiteSpace=wrap;connectable=0;strokeColor=inherit;overflow=hidden;fillColor=none;top=0;left=0;bottom=0;right=0;pointerEvents=1;fontSize=16;" parent="aZmOVXOk3B2EYtA5Geev-282" vertex="1">
          <mxGeometry x="228" width="225" height="45" as="geometry">
            <mxRectangle width="225" height="45" as="alternateBounds" />
          </mxGeometry>
        </mxCell>
        <mxCell id="aZmOVXOk3B2EYtA5Geev-285" value="Rear Wheels" style="shape=partialRectangle;html=1;whiteSpace=wrap;connectable=0;strokeColor=inherit;overflow=hidden;fillColor=none;top=0;left=0;bottom=0;right=0;pointerEvents=1;fontSize=16;" parent="aZmOVXOk3B2EYtA5Geev-282" vertex="1">
          <mxGeometry x="453" width="350" height="45" as="geometry">
            <mxRectangle width="350" height="45" as="alternateBounds" />
          </mxGeometry>
        </mxCell>
        <mxCell id="aZmOVXOk3B2EYtA5Geev-286" value="" style="shape=tableRow;horizontal=0;startSize=0;swimlaneHead=0;swimlaneBody=0;strokeColor=inherit;top=0;left=0;bottom=0;right=0;collapsible=0;dropTarget=0;fillColor=none;points=[[0,0.5],[1,0.5]];portConstraint=eastwest;fontSize=16;" parent="aZmOVXOk3B2EYtA5Geev-277" vertex="1">
          <mxGeometry y="135" width="803" height="45" as="geometry" />
        </mxCell>
        <mxCell id="aZmOVXOk3B2EYtA5Geev-287" value="Steering Actuator" style="shape=partialRectangle;html=1;whiteSpace=wrap;connectable=0;strokeColor=inherit;overflow=hidden;fillColor=none;top=0;left=0;bottom=0;right=0;pointerEvents=1;fontSize=16;" parent="aZmOVXOk3B2EYtA5Geev-286" vertex="1">
          <mxGeometry width="228" height="45" as="geometry">
            <mxRectangle width="228" height="45" as="alternateBounds" />
          </mxGeometry>
        </mxCell>
        <mxCell id="aZmOVXOk3B2EYtA5Geev-288" value="&lt;font style=&quot;font-size: 12px;&quot;&gt;&lt;a href=&quot;https://www.cubemars.com/goods-1031-AK70-10.html&quot;&gt;AK70-10&lt;/a&gt;&lt;/font&gt;" style="shape=partialRectangle;html=1;whiteSpace=wrap;connectable=0;strokeColor=inherit;overflow=hidden;fillColor=none;top=0;left=0;bottom=0;right=0;pointerEvents=1;fontSize=16;" parent="aZmOVXOk3B2EYtA5Geev-286" vertex="1">
          <mxGeometry x="228" width="225" height="45" as="geometry">
            <mxRectangle width="225" height="45" as="alternateBounds" />
          </mxGeometry>
        </mxCell>
        <mxCell id="aZmOVXOk3B2EYtA5Geev-289" value="Steering Column" style="shape=partialRectangle;html=1;whiteSpace=wrap;connectable=0;strokeColor=inherit;overflow=hidden;fillColor=none;top=0;left=0;bottom=0;right=0;pointerEvents=1;fontSize=16;" parent="aZmOVXOk3B2EYtA5Geev-286" vertex="1">
          <mxGeometry x="453" width="350" height="45" as="geometry">
            <mxRectangle width="350" height="45" as="alternateBounds" />
          </mxGeometry>
        </mxCell>
        <mxCell id="aZmOVXOk3B2EYtA5Geev-290" style="shape=tableRow;horizontal=0;startSize=0;swimlaneHead=0;swimlaneBody=0;strokeColor=inherit;top=0;left=0;bottom=0;right=0;collapsible=0;dropTarget=0;fillColor=none;points=[[0,0.5],[1,0.5]];portConstraint=eastwest;fontSize=16;" parent="aZmOVXOk3B2EYtA5Geev-277" vertex="1">
          <mxGeometry y="180" width="803" height="73" as="geometry" />
        </mxCell>
        <mxCell id="aZmOVXOk3B2EYtA5Geev-291" value="Master PCB" style="shape=partialRectangle;html=1;whiteSpace=wrap;connectable=0;strokeColor=inherit;overflow=hidden;fillColor=none;top=0;left=0;bottom=0;right=0;pointerEvents=1;fontSize=16;" parent="aZmOVXOk3B2EYtA5Geev-290" vertex="1">
          <mxGeometry width="228" height="73" as="geometry">
            <mxRectangle width="228" height="73" as="alternateBounds" />
          </mxGeometry>
        </mxCell>
        <mxCell id="aZmOVXOk3B2EYtA5Geev-292" value="&lt;font style=&quot;font-size: 12px;&quot;&gt;PCB With Micro for AS Status and Other Functionalities&lt;/font&gt;" style="shape=partialRectangle;html=1;whiteSpace=wrap;connectable=0;strokeColor=inherit;overflow=hidden;fillColor=none;top=0;left=0;bottom=0;right=0;pointerEvents=1;fontSize=16;" parent="aZmOVXOk3B2EYtA5Geev-290" vertex="1">
          <mxGeometry x="228" width="225" height="73" as="geometry">
            <mxRectangle width="225" height="73" as="alternateBounds" />
          </mxGeometry>
        </mxCell>
        <mxCell id="aZmOVXOk3B2EYtA5Geev-293" value="Caixa 4" style="shape=partialRectangle;html=1;whiteSpace=wrap;connectable=0;strokeColor=inherit;overflow=hidden;fillColor=none;top=0;left=0;bottom=0;right=0;pointerEvents=1;fontSize=16;" parent="aZmOVXOk3B2EYtA5Geev-290" vertex="1">
          <mxGeometry x="453" width="350" height="73" as="geometry">
            <mxRectangle width="350" height="73" as="alternateBounds" />
          </mxGeometry>
        </mxCell>
        <mxCell id="aZmOVXOk3B2EYtA5Geev-294" style="shape=tableRow;horizontal=0;startSize=0;swimlaneHead=0;swimlaneBody=0;strokeColor=inherit;top=0;left=0;bottom=0;right=0;collapsible=0;dropTarget=0;fillColor=none;points=[[0,0.5],[1,0.5]];portConstraint=eastwest;fontSize=16;" parent="aZmOVXOk3B2EYtA5Geev-277" vertex="1">
          <mxGeometry y="253" width="803" height="64" as="geometry" />
        </mxCell>
        <mxCell id="aZmOVXOk3B2EYtA5Geev-295" value="AMI" style="shape=partialRectangle;html=1;whiteSpace=wrap;connectable=0;strokeColor=inherit;overflow=hidden;fillColor=none;top=0;left=0;bottom=0;right=0;pointerEvents=1;fontSize=16;" parent="aZmOVXOk3B2EYtA5Geev-294" vertex="1">
          <mxGeometry width="228" height="64" as="geometry">
            <mxRectangle width="228" height="64" as="alternateBounds" />
          </mxGeometry>
        </mxCell>
        <mxCell id="aZmOVXOk3B2EYtA5Geev-296" value="&lt;font style=&quot;font-size: 12px;&quot;&gt;Autonomous Mission Indicator and&amp;nbsp;&lt;/font&gt;&lt;font style=&quot;font-size: 12px;&quot;&gt;PCB with ATtiny for Autonomous Mission communication&lt;/font&gt;" style="shape=partialRectangle;html=1;whiteSpace=wrap;connectable=0;strokeColor=inherit;overflow=hidden;fillColor=none;top=0;left=0;bottom=0;right=0;pointerEvents=1;fontSize=16;" parent="aZmOVXOk3B2EYtA5Geev-294" vertex="1">
          <mxGeometry x="228" width="225" height="64" as="geometry">
            <mxRectangle width="225" height="64" as="alternateBounds" />
          </mxGeometry>
        </mxCell>
        <mxCell id="aZmOVXOk3B2EYtA5Geev-297" value="Caixa 4 Dashboard" style="shape=partialRectangle;html=1;whiteSpace=wrap;connectable=0;strokeColor=inherit;overflow=hidden;fillColor=none;top=0;left=0;bottom=0;right=0;pointerEvents=1;fontSize=16;" parent="aZmOVXOk3B2EYtA5Geev-294" vertex="1">
          <mxGeometry x="453" width="350" height="64" as="geometry">
            <mxRectangle width="350" height="64" as="alternateBounds" />
          </mxGeometry>
        </mxCell>
        <mxCell id="aZmOVXOk3B2EYtA5Geev-298" style="shape=tableRow;horizontal=0;startSize=0;swimlaneHead=0;swimlaneBody=0;strokeColor=inherit;top=0;left=0;bottom=0;right=0;collapsible=0;dropTarget=0;fillColor=none;points=[[0,0.5],[1,0.5]];portConstraint=eastwest;fontSize=16;" parent="aZmOVXOk3B2EYtA5Geev-277" vertex="1">
          <mxGeometry y="317" width="803" height="46" as="geometry" />
        </mxCell>
        <mxCell id="aZmOVXOk3B2EYtA5Geev-299" value="ASSI" style="shape=partialRectangle;html=1;whiteSpace=wrap;connectable=0;strokeColor=inherit;overflow=hidden;fillColor=none;top=0;left=0;bottom=0;right=0;pointerEvents=1;fontSize=16;" parent="aZmOVXOk3B2EYtA5Geev-298" vertex="1">
          <mxGeometry width="228" height="46" as="geometry">
            <mxRectangle width="228" height="46" as="alternateBounds" />
          </mxGeometry>
        </mxCell>
        <mxCell id="aZmOVXOk3B2EYtA5Geev-300" value="&lt;font style=&quot;font-size: 12px;&quot;&gt;Autonomous Systems Status Indicators&lt;/font&gt;" style="shape=partialRectangle;html=1;whiteSpace=wrap;connectable=0;strokeColor=inherit;overflow=hidden;fillColor=none;top=0;left=0;bottom=0;right=0;pointerEvents=1;fontSize=16;" parent="aZmOVXOk3B2EYtA5Geev-298" vertex="1">
          <mxGeometry x="228" width="225" height="46" as="geometry">
            <mxRectangle width="225" height="46" as="alternateBounds" />
          </mxGeometry>
        </mxCell>
        <mxCell id="aZmOVXOk3B2EYtA5Geev-301" value="Left, Right and Firewall" style="shape=partialRectangle;html=1;whiteSpace=wrap;connectable=0;strokeColor=inherit;overflow=hidden;fillColor=none;top=0;left=0;bottom=0;right=0;pointerEvents=1;fontSize=16;" parent="aZmOVXOk3B2EYtA5Geev-298" vertex="1">
          <mxGeometry x="453" width="350" height="46" as="geometry">
            <mxRectangle width="350" height="46" as="alternateBounds" />
          </mxGeometry>
        </mxCell>
        <mxCell id="aZmOVXOk3B2EYtA5Geev-306" style="shape=tableRow;horizontal=0;startSize=0;swimlaneHead=0;swimlaneBody=0;strokeColor=inherit;top=0;left=0;bottom=0;right=0;collapsible=0;dropTarget=0;fillColor=none;points=[[0,0.5],[1,0.5]];portConstraint=eastwest;fontSize=16;" parent="aZmOVXOk3B2EYtA5Geev-277" vertex="1">
          <mxGeometry y="363" width="803" height="45" as="geometry" />
        </mxCell>
        <mxCell id="aZmOVXOk3B2EYtA5Geev-307" value="RES" style="shape=partialRectangle;html=1;whiteSpace=wrap;connectable=0;strokeColor=inherit;overflow=hidden;fillColor=none;top=0;left=0;bottom=0;right=0;pointerEvents=1;fontSize=16;" parent="aZmOVXOk3B2EYtA5Geev-306" vertex="1">
          <mxGeometry width="228" height="45" as="geometry">
            <mxRectangle width="228" height="45" as="alternateBounds" />
          </mxGeometry>
        </mxCell>
        <mxCell id="aZmOVXOk3B2EYtA5Geev-308" value="&lt;font style=&quot;font-size: 12px;&quot;&gt;Remote Emergency System (PCB)&lt;/font&gt;" style="shape=partialRectangle;html=1;whiteSpace=wrap;connectable=0;strokeColor=inherit;overflow=hidden;fillColor=none;top=0;left=0;bottom=0;right=0;pointerEvents=1;fontSize=16;" parent="aZmOVXOk3B2EYtA5Geev-306" vertex="1">
          <mxGeometry x="228" width="225" height="45" as="geometry">
            <mxRectangle width="225" height="45" as="alternateBounds" />
          </mxGeometry>
        </mxCell>
        <mxCell id="aZmOVXOk3B2EYtA5Geev-309" value="Behind Seat" style="shape=partialRectangle;html=1;whiteSpace=wrap;connectable=0;strokeColor=inherit;overflow=hidden;fillColor=none;top=0;left=0;bottom=0;right=0;pointerEvents=1;fontSize=16;" parent="aZmOVXOk3B2EYtA5Geev-306" vertex="1">
          <mxGeometry x="453" width="350" height="45" as="geometry">
            <mxRectangle width="350" height="45" as="alternateBounds" />
          </mxGeometry>
        </mxCell>
        <mxCell id="aZmOVXOk3B2EYtA5Geev-310" style="shape=tableRow;horizontal=0;startSize=0;swimlaneHead=0;swimlaneBody=0;strokeColor=inherit;top=0;left=0;bottom=0;right=0;collapsible=0;dropTarget=0;fillColor=none;points=[[0,0.5],[1,0.5]];portConstraint=eastwest;fontSize=16;" parent="aZmOVXOk3B2EYtA5Geev-277" vertex="1">
          <mxGeometry y="408" width="803" height="44" as="geometry" />
        </mxCell>
        <mxCell id="aZmOVXOk3B2EYtA5Geev-311" value="Processing Unit" style="shape=partialRectangle;html=1;whiteSpace=wrap;connectable=0;strokeColor=inherit;overflow=hidden;fillColor=none;top=0;left=0;bottom=0;right=0;pointerEvents=1;fontSize=16;" parent="aZmOVXOk3B2EYtA5Geev-310" vertex="1">
          <mxGeometry width="228" height="44" as="geometry">
            <mxRectangle width="228" height="44" as="alternateBounds" />
          </mxGeometry>
        </mxCell>
        <mxCell id="aZmOVXOk3B2EYtA5Geev-312" value="&lt;font style=&quot;font-size: 12px;&quot;&gt;Computer for Main AS System&lt;/font&gt;" style="shape=partialRectangle;html=1;whiteSpace=wrap;connectable=0;strokeColor=inherit;overflow=hidden;fillColor=none;top=0;left=0;bottom=0;right=0;pointerEvents=1;fontSize=16;" parent="aZmOVXOk3B2EYtA5Geev-310" vertex="1">
          <mxGeometry x="228" width="225" height="44" as="geometry">
            <mxRectangle width="225" height="44" as="alternateBounds" />
          </mxGeometry>
        </mxCell>
        <mxCell id="aZmOVXOk3B2EYtA5Geev-313" value="Behind Seat" style="shape=partialRectangle;html=1;whiteSpace=wrap;connectable=0;strokeColor=inherit;overflow=hidden;fillColor=none;top=0;left=0;bottom=0;right=0;pointerEvents=1;fontSize=16;" parent="aZmOVXOk3B2EYtA5Geev-310" vertex="1">
          <mxGeometry x="453" width="350" height="44" as="geometry">
            <mxRectangle width="350" height="44" as="alternateBounds" />
          </mxGeometry>
        </mxCell>
        <mxCell id="aZmOVXOk3B2EYtA5Geev-314" style="shape=tableRow;horizontal=0;startSize=0;swimlaneHead=0;swimlaneBody=0;strokeColor=inherit;top=0;left=0;bottom=0;right=0;collapsible=0;dropTarget=0;fillColor=none;points=[[0,0.5],[1,0.5]];portConstraint=eastwest;fontSize=16;" parent="aZmOVXOk3B2EYtA5Geev-277" vertex="1">
          <mxGeometry y="452" width="803" height="46" as="geometry" />
        </mxCell>
        <mxCell id="aZmOVXOk3B2EYtA5Geev-315" value="ASMS" style="shape=partialRectangle;html=1;whiteSpace=wrap;connectable=0;strokeColor=inherit;overflow=hidden;fillColor=none;top=0;left=0;bottom=0;right=0;pointerEvents=1;fontSize=16;" parent="aZmOVXOk3B2EYtA5Geev-314" vertex="1">
          <mxGeometry width="228" height="46" as="geometry">
            <mxRectangle width="228" height="46" as="alternateBounds" />
          </mxGeometry>
        </mxCell>
        <mxCell id="aZmOVXOk3B2EYtA5Geev-316" value="&lt;span style=&quot;font-size: 12px;&quot;&gt;Autonomous Systems Master Switch&lt;/span&gt;" style="shape=partialRectangle;html=1;whiteSpace=wrap;connectable=0;strokeColor=inherit;overflow=hidden;fillColor=none;top=0;left=0;bottom=0;right=0;pointerEvents=1;fontSize=16;" parent="aZmOVXOk3B2EYtA5Geev-314" vertex="1">
          <mxGeometry x="228" width="225" height="46" as="geometry">
            <mxRectangle width="225" height="46" as="alternateBounds" />
          </mxGeometry>
        </mxCell>
        <mxCell id="aZmOVXOk3B2EYtA5Geev-317" value="Caixa 4 Dashboard" style="shape=partialRectangle;html=1;whiteSpace=wrap;connectable=0;strokeColor=inherit;overflow=hidden;fillColor=none;top=0;left=0;bottom=0;right=0;pointerEvents=1;fontSize=16;" parent="aZmOVXOk3B2EYtA5Geev-314" vertex="1">
          <mxGeometry x="453" width="350" height="46" as="geometry">
            <mxRectangle width="350" height="46" as="alternateBounds" />
          </mxGeometry>
        </mxCell>
        <mxCell id="aZmOVXOk3B2EYtA5Geev-322" style="shape=tableRow;horizontal=0;startSize=0;swimlaneHead=0;swimlaneBody=0;strokeColor=inherit;top=0;left=0;bottom=0;right=0;collapsible=0;dropTarget=0;fillColor=none;points=[[0,0.5],[1,0.5]];portConstraint=eastwest;fontSize=16;" parent="aZmOVXOk3B2EYtA5Geev-277" vertex="1">
          <mxGeometry y="498" width="803" height="45" as="geometry" />
        </mxCell>
        <mxCell id="aZmOVXOk3B2EYtA5Geev-323" value="Directional Solenoid Valves EBS" style="shape=partialRectangle;html=1;whiteSpace=wrap;connectable=0;strokeColor=inherit;overflow=hidden;fillColor=none;top=0;left=0;bottom=0;right=0;pointerEvents=1;fontSize=16;" parent="aZmOVXOk3B2EYtA5Geev-322" vertex="1">
          <mxGeometry width="228" height="45" as="geometry">
            <mxRectangle width="228" height="45" as="alternateBounds" />
          </mxGeometry>
        </mxCell>
        <mxCell id="aZmOVXOk3B2EYtA5Geev-324" value="&lt;font style=&quot;font-size: 12px;&quot;&gt;EBS Component&lt;/font&gt;" style="shape=partialRectangle;html=1;whiteSpace=wrap;connectable=0;strokeColor=inherit;overflow=hidden;fillColor=none;top=0;left=0;bottom=0;right=0;pointerEvents=1;fontSize=16;" parent="aZmOVXOk3B2EYtA5Geev-322" vertex="1">
          <mxGeometry x="228" width="225" height="45" as="geometry">
            <mxRectangle width="225" height="45" as="alternateBounds" />
          </mxGeometry>
        </mxCell>
        <mxCell id="aZmOVXOk3B2EYtA5Geev-325" value="Caixa 4" style="shape=partialRectangle;html=1;whiteSpace=wrap;connectable=0;strokeColor=inherit;overflow=hidden;fillColor=none;top=0;left=0;bottom=0;right=0;pointerEvents=1;fontSize=16;" parent="aZmOVXOk3B2EYtA5Geev-322" vertex="1">
          <mxGeometry x="453" width="350" height="45" as="geometry">
            <mxRectangle width="350" height="45" as="alternateBounds" />
          </mxGeometry>
        </mxCell>
        <mxCell id="aZmOVXOk3B2EYtA5Geev-326" style="shape=tableRow;horizontal=0;startSize=0;swimlaneHead=0;swimlaneBody=0;strokeColor=inherit;top=0;left=0;bottom=0;right=0;collapsible=0;dropTarget=0;fillColor=none;points=[[0,0.5],[1,0.5]];portConstraint=eastwest;fontSize=16;" parent="aZmOVXOk3B2EYtA5Geev-277" vertex="1">
          <mxGeometry y="543" width="803" height="46" as="geometry" />
        </mxCell>
        <mxCell id="aZmOVXOk3B2EYtA5Geev-327" value="Manual Valves EBS" style="shape=partialRectangle;html=1;whiteSpace=wrap;connectable=0;strokeColor=inherit;overflow=hidden;fillColor=none;top=0;left=0;bottom=0;right=0;pointerEvents=1;fontSize=16;" parent="aZmOVXOk3B2EYtA5Geev-326" vertex="1">
          <mxGeometry width="228" height="46" as="geometry">
            <mxRectangle width="228" height="46" as="alternateBounds" />
          </mxGeometry>
        </mxCell>
        <mxCell id="aZmOVXOk3B2EYtA5Geev-328" value="&lt;font style=&quot;font-size: 12px;&quot;&gt;EBS Component&lt;/font&gt;" style="shape=partialRectangle;html=1;whiteSpace=wrap;connectable=0;strokeColor=inherit;overflow=hidden;fillColor=none;top=0;left=0;bottom=0;right=0;pointerEvents=1;fontSize=16;" parent="aZmOVXOk3B2EYtA5Geev-326" vertex="1">
          <mxGeometry x="228" width="225" height="46" as="geometry">
            <mxRectangle width="225" height="46" as="alternateBounds" />
          </mxGeometry>
        </mxCell>
        <mxCell id="aZmOVXOk3B2EYtA5Geev-329" value="Caixa 4 Dashboard" style="shape=partialRectangle;html=1;whiteSpace=wrap;connectable=0;strokeColor=inherit;overflow=hidden;fillColor=none;top=0;left=0;bottom=0;right=0;pointerEvents=1;fontSize=16;" parent="aZmOVXOk3B2EYtA5Geev-326" vertex="1">
          <mxGeometry x="453" width="350" height="46" as="geometry">
            <mxRectangle width="350" height="46" as="alternateBounds" />
          </mxGeometry>
        </mxCell>
        <mxCell id="aZmOVXOk3B2EYtA5Geev-330" style="shape=tableRow;horizontal=0;startSize=0;swimlaneHead=0;swimlaneBody=0;strokeColor=inherit;top=0;left=0;bottom=0;right=0;collapsible=0;dropTarget=0;fillColor=none;points=[[0,0.5],[1,0.5]];portConstraint=eastwest;fontSize=16;" parent="aZmOVXOk3B2EYtA5Geev-277" vertex="1">
          <mxGeometry y="589" width="803" height="45" as="geometry" />
        </mxCell>
        <mxCell id="aZmOVXOk3B2EYtA5Geev-331" value="Pneumatic Pressure Sensor EBS" style="shape=partialRectangle;html=1;whiteSpace=wrap;connectable=0;strokeColor=inherit;overflow=hidden;fillColor=none;top=0;left=0;bottom=0;right=0;pointerEvents=1;fontSize=16;" parent="aZmOVXOk3B2EYtA5Geev-330" vertex="1">
          <mxGeometry width="228" height="45" as="geometry">
            <mxRectangle width="228" height="45" as="alternateBounds" />
          </mxGeometry>
        </mxCell>
        <mxCell id="aZmOVXOk3B2EYtA5Geev-332" value="&lt;font style=&quot;font-size: 12px;&quot;&gt;EBS Component&lt;/font&gt;" style="shape=partialRectangle;html=1;whiteSpace=wrap;connectable=0;strokeColor=inherit;overflow=hidden;fillColor=none;top=0;left=0;bottom=0;right=0;pointerEvents=1;fontSize=16;" parent="aZmOVXOk3B2EYtA5Geev-330" vertex="1">
          <mxGeometry x="228" width="225" height="45" as="geometry">
            <mxRectangle width="225" height="45" as="alternateBounds" />
          </mxGeometry>
        </mxCell>
        <mxCell id="aZmOVXOk3B2EYtA5Geev-333" value="Caixa 4" style="shape=partialRectangle;html=1;whiteSpace=wrap;connectable=0;strokeColor=inherit;overflow=hidden;fillColor=none;top=0;left=0;bottom=0;right=0;pointerEvents=1;fontSize=16;" parent="aZmOVXOk3B2EYtA5Geev-330" vertex="1">
          <mxGeometry x="453" width="350" height="45" as="geometry">
            <mxRectangle width="350" height="45" as="alternateBounds" />
          </mxGeometry>
        </mxCell>
        <mxCell id="aZmOVXOk3B2EYtA5Geev-338" style="shape=tableRow;horizontal=0;startSize=0;swimlaneHead=0;swimlaneBody=0;strokeColor=inherit;top=0;left=0;bottom=0;right=0;collapsible=0;dropTarget=0;fillColor=none;points=[[0,0.5],[1,0.5]];portConstraint=eastwest;fontSize=16;" parent="aZmOVXOk3B2EYtA5Geev-277" vertex="1">
          <mxGeometry y="634" width="803" height="45" as="geometry" />
        </mxCell>
        <mxCell id="aZmOVXOk3B2EYtA5Geev-339" value="Pressure Reduction Valve" style="shape=partialRectangle;html=1;whiteSpace=wrap;connectable=0;strokeColor=inherit;overflow=hidden;fillColor=none;top=0;left=0;bottom=0;right=0;pointerEvents=1;fontSize=16;" parent="aZmOVXOk3B2EYtA5Geev-338" vertex="1">
          <mxGeometry width="228" height="45" as="geometry">
            <mxRectangle width="228" height="45" as="alternateBounds" />
          </mxGeometry>
        </mxCell>
        <mxCell id="aZmOVXOk3B2EYtA5Geev-340" value="&lt;font style=&quot;font-size: 12px;&quot;&gt;EBS Component&lt;/font&gt;" style="shape=partialRectangle;html=1;whiteSpace=wrap;connectable=0;strokeColor=inherit;overflow=hidden;fillColor=none;top=0;left=0;bottom=0;right=0;pointerEvents=1;fontSize=16;" parent="aZmOVXOk3B2EYtA5Geev-338" vertex="1">
          <mxGeometry x="228" width="225" height="45" as="geometry">
            <mxRectangle width="225" height="45" as="alternateBounds" />
          </mxGeometry>
        </mxCell>
        <mxCell id="aZmOVXOk3B2EYtA5Geev-341" value="Caixa 4" style="shape=partialRectangle;html=1;whiteSpace=wrap;connectable=0;strokeColor=inherit;overflow=hidden;fillColor=none;top=0;left=0;bottom=0;right=0;pointerEvents=1;fontSize=16;" parent="aZmOVXOk3B2EYtA5Geev-338" vertex="1">
          <mxGeometry x="453" width="350" height="45" as="geometry">
            <mxRectangle width="350" height="45" as="alternateBounds" />
          </mxGeometry>
        </mxCell>
        <mxCell id="aZmOVXOk3B2EYtA5Geev-334" style="shape=tableRow;horizontal=0;startSize=0;swimlaneHead=0;swimlaneBody=0;strokeColor=inherit;top=0;left=0;bottom=0;right=0;collapsible=0;dropTarget=0;fillColor=none;points=[[0,0.5],[1,0.5]];portConstraint=eastwest;fontSize=16;" parent="aZmOVXOk3B2EYtA5Geev-277" vertex="1">
          <mxGeometry y="679" width="803" height="46" as="geometry" />
        </mxCell>
        <mxCell id="aZmOVXOk3B2EYtA5Geev-335" value="Over Pressure Protection Valve" style="shape=partialRectangle;html=1;whiteSpace=wrap;connectable=0;strokeColor=inherit;overflow=hidden;fillColor=none;top=0;left=0;bottom=0;right=0;pointerEvents=1;fontSize=16;" parent="aZmOVXOk3B2EYtA5Geev-334" vertex="1">
          <mxGeometry width="228" height="46" as="geometry">
            <mxRectangle width="228" height="46" as="alternateBounds" />
          </mxGeometry>
        </mxCell>
        <mxCell id="aZmOVXOk3B2EYtA5Geev-336" value="&lt;font style=&quot;font-size: 12px;&quot;&gt;EBS Component&lt;/font&gt;" style="shape=partialRectangle;html=1;whiteSpace=wrap;connectable=0;strokeColor=inherit;overflow=hidden;fillColor=none;top=0;left=0;bottom=0;right=0;pointerEvents=1;fontSize=16;" parent="aZmOVXOk3B2EYtA5Geev-334" vertex="1">
          <mxGeometry x="228" width="225" height="46" as="geometry">
            <mxRectangle width="225" height="46" as="alternateBounds" />
          </mxGeometry>
        </mxCell>
        <mxCell id="aZmOVXOk3B2EYtA5Geev-337" value="Caixa 4" style="shape=partialRectangle;html=1;whiteSpace=wrap;connectable=0;strokeColor=inherit;overflow=hidden;fillColor=none;top=0;left=0;bottom=0;right=0;pointerEvents=1;fontSize=16;" parent="aZmOVXOk3B2EYtA5Geev-334" vertex="1">
          <mxGeometry x="453" width="350" height="46" as="geometry">
            <mxRectangle width="350" height="46" as="alternateBounds" />
          </mxGeometry>
        </mxCell>
        <mxCell id="aZmOVXOk3B2EYtA5Geev-342" style="shape=tableRow;horizontal=0;startSize=0;swimlaneHead=0;swimlaneBody=0;strokeColor=inherit;top=0;left=0;bottom=0;right=0;collapsible=0;dropTarget=0;fillColor=none;points=[[0,0.5],[1,0.5]];portConstraint=eastwest;fontSize=16;" parent="aZmOVXOk3B2EYtA5Geev-277" vertex="1">
          <mxGeometry y="725" width="803" height="45" as="geometry" />
        </mxCell>
        <mxCell id="aZmOVXOk3B2EYtA5Geev-343" value="Pneumatic Tanks" style="shape=partialRectangle;html=1;whiteSpace=wrap;connectable=0;strokeColor=inherit;overflow=hidden;fillColor=none;top=0;left=0;bottom=0;right=0;pointerEvents=1;fontSize=16;" parent="aZmOVXOk3B2EYtA5Geev-342" vertex="1">
          <mxGeometry width="228" height="45" as="geometry">
            <mxRectangle width="228" height="45" as="alternateBounds" />
          </mxGeometry>
        </mxCell>
        <mxCell id="aZmOVXOk3B2EYtA5Geev-344" value="&lt;font style=&quot;font-size: 12px;&quot;&gt;EBS Component&lt;/font&gt;" style="shape=partialRectangle;html=1;whiteSpace=wrap;connectable=0;strokeColor=inherit;overflow=hidden;fillColor=none;top=0;left=0;bottom=0;right=0;pointerEvents=1;fontSize=16;" parent="aZmOVXOk3B2EYtA5Geev-342" vertex="1">
          <mxGeometry x="228" width="225" height="45" as="geometry">
            <mxRectangle width="225" height="45" as="alternateBounds" />
          </mxGeometry>
        </mxCell>
        <mxCell id="aZmOVXOk3B2EYtA5Geev-345" value="Above Inversor" style="shape=partialRectangle;html=1;whiteSpace=wrap;connectable=0;strokeColor=inherit;overflow=hidden;fillColor=none;top=0;left=0;bottom=0;right=0;pointerEvents=1;fontSize=16;" parent="aZmOVXOk3B2EYtA5Geev-342" vertex="1">
          <mxGeometry x="453" width="350" height="45" as="geometry">
            <mxRectangle width="350" height="45" as="alternateBounds" />
          </mxGeometry>
        </mxCell>
        <mxCell id="7EYHafyRi_EYMEZ_XVhg-11" style="shape=tableRow;horizontal=0;startSize=0;swimlaneHead=0;swimlaneBody=0;strokeColor=inherit;top=0;left=0;bottom=0;right=0;collapsible=0;dropTarget=0;fillColor=none;points=[[0,0.5],[1,0.5]];portConstraint=eastwest;fontSize=16;" parent="aZmOVXOk3B2EYtA5Geev-277" vertex="1">
          <mxGeometry y="770" width="803" height="45" as="geometry" />
        </mxCell>
        <mxCell id="7EYHafyRi_EYMEZ_XVhg-12" value="LiDAR" style="shape=partialRectangle;html=1;whiteSpace=wrap;connectable=0;strokeColor=inherit;overflow=hidden;fillColor=none;top=0;left=0;bottom=0;right=0;pointerEvents=1;fontSize=16;" parent="7EYHafyRi_EYMEZ_XVhg-11" vertex="1">
          <mxGeometry width="228" height="45" as="geometry">
            <mxRectangle width="228" height="45" as="alternateBounds" />
          </mxGeometry>
        </mxCell>
        <mxCell id="7EYHafyRi_EYMEZ_XVhg-13" value="&lt;font style=&quot;font-size: 12px;&quot;&gt;&lt;a href=&quot;https://www.roscomponents.com/en/lidar-laser-scanner/rs-helios-1615&quot;&gt;Robosense Helios 1615&lt;/a&gt;&lt;/font&gt;" style="shape=partialRectangle;html=1;whiteSpace=wrap;connectable=0;strokeColor=inherit;overflow=hidden;fillColor=none;top=0;left=0;bottom=0;right=0;pointerEvents=1;fontSize=16;" parent="7EYHafyRi_EYMEZ_XVhg-11" vertex="1">
          <mxGeometry x="228" width="225" height="45" as="geometry">
            <mxRectangle width="225" height="45" as="alternateBounds" />
          </mxGeometry>
        </mxCell>
        <mxCell id="7EYHafyRi_EYMEZ_XVhg-14" value="Main Hoop, under TSAL" style="shape=partialRectangle;html=1;whiteSpace=wrap;connectable=0;strokeColor=inherit;overflow=hidden;fillColor=none;top=0;left=0;bottom=0;right=0;pointerEvents=1;fontSize=16;" parent="7EYHafyRi_EYMEZ_XVhg-11" vertex="1">
          <mxGeometry x="453" width="350" height="45" as="geometry">
            <mxRectangle width="350" height="45" as="alternateBounds" />
          </mxGeometry>
        </mxCell>
        <mxCell id="fwq8B0o7xc-79FGOwHRA-9" style="shape=tableRow;horizontal=0;startSize=0;swimlaneHead=0;swimlaneBody=0;strokeColor=inherit;top=0;left=0;bottom=0;right=0;collapsible=0;dropTarget=0;fillColor=none;points=[[0,0.5],[1,0.5]];portConstraint=eastwest;fontSize=16;" parent="aZmOVXOk3B2EYtA5Geev-277" vertex="1">
          <mxGeometry y="815" width="803" height="45" as="geometry" />
        </mxCell>
        <mxCell id="fwq8B0o7xc-79FGOwHRA-10" value="EBS PCB" style="shape=partialRectangle;html=1;whiteSpace=wrap;connectable=0;strokeColor=inherit;overflow=hidden;fillColor=none;top=0;left=0;bottom=0;right=0;pointerEvents=1;fontSize=16;" parent="fwq8B0o7xc-79FGOwHRA-9" vertex="1">
          <mxGeometry width="228" height="45" as="geometry">
            <mxRectangle width="228" height="45" as="alternateBounds" />
          </mxGeometry>
        </mxCell>
        <mxCell id="fwq8B0o7xc-79FGOwHRA-11" value="&lt;font style=&quot;font-size: 12px;&quot;&gt;PCB for EBS SDC Logic&lt;/font&gt;" style="shape=partialRectangle;html=1;whiteSpace=wrap;connectable=0;strokeColor=inherit;overflow=hidden;fillColor=none;top=0;left=0;bottom=0;right=0;pointerEvents=1;fontSize=16;" parent="fwq8B0o7xc-79FGOwHRA-9" vertex="1">
          <mxGeometry x="228" width="225" height="45" as="geometry">
            <mxRectangle width="225" height="45" as="alternateBounds" />
          </mxGeometry>
        </mxCell>
        <mxCell id="fwq8B0o7xc-79FGOwHRA-12" value="Caixa 4" style="shape=partialRectangle;html=1;whiteSpace=wrap;connectable=0;strokeColor=inherit;overflow=hidden;fillColor=none;top=0;left=0;bottom=0;right=0;pointerEvents=1;fontSize=16;" parent="fwq8B0o7xc-79FGOwHRA-9" vertex="1">
          <mxGeometry x="453" width="350" height="45" as="geometry">
            <mxRectangle width="350" height="45" as="alternateBounds" />
          </mxGeometry>
        </mxCell>
        <mxCell id="CQ1wmMg1kjNoGGf3bAGS-82" style="shape=tableRow;horizontal=0;startSize=0;swimlaneHead=0;swimlaneBody=0;strokeColor=inherit;top=0;left=0;bottom=0;right=0;collapsible=0;dropTarget=0;fillColor=none;points=[[0,0.5],[1,0.5]];portConstraint=eastwest;fontSize=16;" parent="aZmOVXOk3B2EYtA5Geev-277" vertex="1">
          <mxGeometry y="860" width="803" height="45" as="geometry" />
        </mxCell>
        <mxCell id="CQ1wmMg1kjNoGGf3bAGS-83" value="Hydraulic Pressure Brake Sensor" style="shape=partialRectangle;html=1;whiteSpace=wrap;connectable=0;strokeColor=inherit;overflow=hidden;fillColor=none;top=0;left=0;bottom=0;right=0;pointerEvents=1;fontSize=16;" parent="CQ1wmMg1kjNoGGf3bAGS-82" vertex="1">
          <mxGeometry width="228" height="45" as="geometry">
            <mxRectangle width="228" height="45" as="alternateBounds" />
          </mxGeometry>
        </mxCell>
        <mxCell id="CQ1wmMg1kjNoGGf3bAGS-84" value="&lt;font style=&quot;font-size: 12px;&quot;&gt;EBS Component&lt;/font&gt;" style="shape=partialRectangle;html=1;whiteSpace=wrap;connectable=0;strokeColor=inherit;overflow=hidden;fillColor=none;top=0;left=0;bottom=0;right=0;pointerEvents=1;fontSize=16;" parent="CQ1wmMg1kjNoGGf3bAGS-82" vertex="1">
          <mxGeometry x="228" width="225" height="45" as="geometry">
            <mxRectangle width="225" height="45" as="alternateBounds" />
          </mxGeometry>
        </mxCell>
        <mxCell id="CQ1wmMg1kjNoGGf3bAGS-85" value="Brake Line" style="shape=partialRectangle;html=1;whiteSpace=wrap;connectable=0;strokeColor=inherit;overflow=hidden;fillColor=none;top=0;left=0;bottom=0;right=0;pointerEvents=1;fontSize=16;" parent="CQ1wmMg1kjNoGGf3bAGS-82" vertex="1">
          <mxGeometry x="453" width="350" height="45" as="geometry">
            <mxRectangle width="350" height="45" as="alternateBounds" />
          </mxGeometry>
        </mxCell>
        <mxCell id="GeWjYYyK9IcbD7qX6hDq-42" style="shape=tableRow;horizontal=0;startSize=0;swimlaneHead=0;swimlaneBody=0;strokeColor=inherit;top=0;left=0;bottom=0;right=0;collapsible=0;dropTarget=0;fillColor=none;points=[[0,0.5],[1,0.5]];portConstraint=eastwest;fontSize=16;" vertex="1" parent="aZmOVXOk3B2EYtA5Geev-277">
          <mxGeometry y="905" width="803" height="45" as="geometry" />
        </mxCell>
        <mxCell id="GeWjYYyK9IcbD7qX6hDq-43" value="Bosch Steering Angle Sensor" style="shape=partialRectangle;html=1;whiteSpace=wrap;connectable=0;strokeColor=inherit;overflow=hidden;fillColor=none;top=0;left=0;bottom=0;right=0;pointerEvents=1;fontSize=16;" vertex="1" parent="GeWjYYyK9IcbD7qX6hDq-42">
          <mxGeometry width="228" height="45" as="geometry">
            <mxRectangle width="228" height="45" as="alternateBounds" />
          </mxGeometry>
        </mxCell>
        <mxCell id="GeWjYYyK9IcbD7qX6hDq-44" value="&lt;font style=&quot;font-size: 12px;&quot;&gt;&lt;a href=&quot;https://drive.google.com/file/d/13a-BGTo63jbbZ4h0N5Mptc7fU3cIK2sF/view?usp=sharing&quot;&gt;Bosch Steering Angle Sensor&lt;/a&gt;&lt;/font&gt;" style="shape=partialRectangle;html=1;whiteSpace=wrap;connectable=0;strokeColor=inherit;overflow=hidden;fillColor=none;top=0;left=0;bottom=0;right=0;pointerEvents=1;fontSize=16;" vertex="1" parent="GeWjYYyK9IcbD7qX6hDq-42">
          <mxGeometry x="228" width="225" height="45" as="geometry">
            <mxRectangle width="225" height="45" as="alternateBounds" />
          </mxGeometry>
        </mxCell>
        <mxCell id="GeWjYYyK9IcbD7qX6hDq-45" value="Steering Column" style="shape=partialRectangle;html=1;whiteSpace=wrap;connectable=0;strokeColor=inherit;overflow=hidden;fillColor=none;top=0;left=0;bottom=0;right=0;pointerEvents=1;fontSize=16;" vertex="1" parent="GeWjYYyK9IcbD7qX6hDq-42">
          <mxGeometry x="453" width="350" height="45" as="geometry">
            <mxRectangle width="350" height="45" as="alternateBounds" />
          </mxGeometry>
        </mxCell>
        <mxCell id="7EYHafyRi_EYMEZ_XVhg-3" value="&lt;b&gt;Caixa 4&lt;/b&gt;" style="shape=umlFrame;whiteSpace=wrap;html=1;pointerEvents=0;recursiveResize=0;container=1;collapsible=0;width=160;" parent="1" vertex="1">
          <mxGeometry x="120" y="100" width="710" height="980" as="geometry" />
        </mxCell>
        <mxCell id="aZmOVXOk3B2EYtA5Geev-26" value="&lt;div style=&quot;text-align: center;&quot;&gt;&lt;span style=&quot;background-color: initial;&quot;&gt;&lt;b&gt;Master PCB&lt;/b&gt;&lt;/span&gt;&lt;/div&gt;" style="verticalAlign=top;align=left;spacingTop=8;spacingLeft=2;spacingRight=12;shape=cube;size=10;direction=south;fontStyle=4;html=1;whiteSpace=wrap;" parent="7EYHafyRi_EYMEZ_XVhg-3" vertex="1">
          <mxGeometry x="472.5" y="220" width="220" height="750" as="geometry" />
        </mxCell>
        <mxCell id="aZmOVXOk3B2EYtA5Geev-27" value="&lt;div style=&quot;text-align: center;&quot;&gt;&lt;span style=&quot;background-color: initial;&quot;&gt;&lt;b&gt;SDC Logic&lt;/b&gt;&lt;/span&gt;&lt;/div&gt;" style="verticalAlign=top;align=left;spacingTop=8;spacingLeft=2;spacingRight=12;shape=cube;size=10;direction=south;fontStyle=4;html=1;whiteSpace=wrap;" parent="7EYHafyRi_EYMEZ_XVhg-3" vertex="1">
          <mxGeometry x="250" y="40" width="180" height="260" as="geometry" />
        </mxCell>
        <mxCell id="l7KghhQer-1Jxl8H2hNQ-37" value="&lt;font style=&quot;vertical-align: inherit;&quot;&gt;&lt;font style=&quot;vertical-align: inherit;&quot;&gt;EBS&lt;/font&gt;&lt;/font&gt;" style="swimlane;whiteSpace=wrap;html=1;" parent="7EYHafyRi_EYMEZ_XVhg-3" vertex="1">
          <mxGeometry x="472.5" y="40" width="100" height="90" as="geometry" />
        </mxCell>
        <mxCell id="l7KghhQer-1Jxl8H2hNQ-38" value="&lt;b&gt;&lt;font style=&quot;vertical-align: inherit;&quot;&gt;&lt;font style=&quot;vertical-align: inherit;&quot;&gt;&lt;font style=&quot;vertical-align: inherit;&quot;&gt;&lt;font style=&quot;vertical-align: inherit;&quot;&gt;EBS Release Valve&lt;/font&gt;&lt;/font&gt;&lt;/font&gt;&lt;/font&gt;&lt;/b&gt;" style="text;strokeColor=default;fillColor=none;align=center;verticalAlign=middle;spacingLeft=4;spacingRight=4;overflow=hidden;points=[[0,0.5],[1,0.5]];portConstraint=eastwest;rotatable=0;whiteSpace=wrap;html=1;strokeWidth=1;" parent="l7KghhQer-1Jxl8H2hNQ-37" vertex="1">
          <mxGeometry x="15" y="40" width="85" height="40" as="geometry" />
        </mxCell>
        <mxCell id="l7KghhQer-1Jxl8H2hNQ-22" value="&lt;font style=&quot;vertical-align: inherit;&quot;&gt;&lt;font style=&quot;vertical-align: inherit;&quot;&gt;SWITCHES&lt;/font&gt;&lt;/font&gt;" style="swimlane;whiteSpace=wrap;html=1;" parent="7EYHafyRi_EYMEZ_XVhg-3" vertex="1">
          <mxGeometry x="600" y="40" width="92.5" height="120" as="geometry" />
        </mxCell>
        <mxCell id="l7KghhQer-1Jxl8H2hNQ-26" value="&lt;b&gt;&lt;font style=&quot;vertical-align: inherit;&quot;&gt;&lt;font style=&quot;vertical-align: inherit;&quot;&gt;&lt;font style=&quot;vertical-align: inherit;&quot;&gt;&lt;font style=&quot;vertical-align: inherit;&quot;&gt;ASMS State&lt;/font&gt;&lt;/font&gt;&lt;/font&gt;&lt;/font&gt;&lt;/b&gt;" style="text;strokeColor=default;fillColor=none;align=center;verticalAlign=middle;spacingLeft=4;spacingRight=4;overflow=hidden;points=[[0,0.5],[1,0.5]];portConstraint=eastwest;rotatable=0;whiteSpace=wrap;html=1;strokeWidth=1;" parent="l7KghhQer-1Jxl8H2hNQ-22" vertex="1">
          <mxGeometry x="7.5" y="40" width="85" height="40" as="geometry" />
        </mxCell>
        <mxCell id="l7KghhQer-1Jxl8H2hNQ-28" value="&lt;b&gt;AS ATS&lt;/b&gt;" style="text;strokeColor=default;fillColor=none;align=center;verticalAlign=middle;spacingLeft=4;spacingRight=4;overflow=hidden;points=[[0,0.5],[1,0.5]];portConstraint=eastwest;rotatable=0;whiteSpace=wrap;html=1;strokeWidth=1;" parent="l7KghhQer-1Jxl8H2hNQ-22" vertex="1">
          <mxGeometry x="7.5" y="80" width="85" height="40" as="geometry" />
        </mxCell>
        <mxCell id="aZmOVXOk3B2EYtA5Geev-25" value="&lt;div style=&quot;text-align: center;&quot;&gt;&lt;span style=&quot;background-color: initial;&quot;&gt;&lt;b&gt;AMI PCB&lt;/b&gt;&lt;/span&gt;&lt;/div&gt;" style="verticalAlign=top;align=left;spacingTop=8;spacingLeft=2;spacingRight=12;shape=cube;size=10;direction=south;fontStyle=4;html=1;whiteSpace=wrap;" parent="7EYHafyRi_EYMEZ_XVhg-3" vertex="1">
          <mxGeometry x="160" y="450" width="240" height="510" as="geometry" />
        </mxCell>
        <mxCell id="aZmOVXOk3B2EYtA5Geev-31" value="&lt;b&gt;MISSION&lt;/b&gt;" style="swimlane;fontStyle=0;childLayout=stackLayout;horizontal=1;startSize=30;horizontalStack=0;resizeParent=1;resizeParentMax=0;resizeLast=0;collapsible=1;marginBottom=0;whiteSpace=wrap;html=1;verticalAlign=middle;gradientColor=none;perimeterSpacing=0;" parent="7EYHafyRi_EYMEZ_XVhg-3" vertex="1">
          <mxGeometry x="180" y="630" width="120" height="240" as="geometry" />
        </mxCell>
        <mxCell id="aZmOVXOk3B2EYtA5Geev-32" value="Manual Driving" style="text;align=left;verticalAlign=middle;spacingLeft=4;spacingRight=4;overflow=hidden;points=[[0,0.5],[1,0.5]];portConstraint=eastwest;rotatable=0;whiteSpace=wrap;html=1;fontSize=13;" parent="aZmOVXOk3B2EYtA5Geev-31" vertex="1">
          <mxGeometry y="30" width="120" height="30" as="geometry" />
        </mxCell>
        <mxCell id="aZmOVXOk3B2EYtA5Geev-33" value="Acceleration" style="text;strokeColor=none;fillColor=none;align=left;verticalAlign=middle;spacingLeft=4;spacingRight=4;overflow=hidden;points=[[0,0.5],[1,0.5]];portConstraint=eastwest;rotatable=0;whiteSpace=wrap;html=1;fontSize=13;" parent="aZmOVXOk3B2EYtA5Geev-31" vertex="1">
          <mxGeometry y="60" width="120" height="30" as="geometry" />
        </mxCell>
        <mxCell id="aZmOVXOk3B2EYtA5Geev-34" value="Skidpad" style="text;strokeColor=none;fillColor=none;align=left;verticalAlign=middle;spacingLeft=4;spacingRight=4;overflow=hidden;points=[[0,0.5],[1,0.5]];portConstraint=eastwest;rotatable=0;whiteSpace=wrap;html=1;fontSize=13;" parent="aZmOVXOk3B2EYtA5Geev-31" vertex="1">
          <mxGeometry y="90" width="120" height="30" as="geometry" />
        </mxCell>
        <mxCell id="aZmOVXOk3B2EYtA5Geev-35" value="Autocross" style="text;strokeColor=none;fillColor=none;align=left;verticalAlign=middle;spacingLeft=4;spacingRight=4;overflow=hidden;points=[[0,0.5],[1,0.5]];portConstraint=eastwest;rotatable=0;whiteSpace=wrap;html=1;fontSize=13;" parent="aZmOVXOk3B2EYtA5Geev-31" vertex="1">
          <mxGeometry y="120" width="120" height="30" as="geometry" />
        </mxCell>
        <mxCell id="aZmOVXOk3B2EYtA5Geev-36" value="Trackdrive" style="text;strokeColor=none;fillColor=none;align=left;verticalAlign=middle;spacingLeft=4;spacingRight=4;overflow=hidden;points=[[0,0.5],[1,0.5]];portConstraint=eastwest;rotatable=0;whiteSpace=wrap;html=1;fontSize=13;" parent="aZmOVXOk3B2EYtA5Geev-31" vertex="1">
          <mxGeometry y="150" width="120" height="30" as="geometry" />
        </mxCell>
        <mxCell id="aZmOVXOk3B2EYtA5Geev-37" value="EBS Test" style="text;strokeColor=none;fillColor=none;align=left;verticalAlign=middle;spacingLeft=4;spacingRight=4;overflow=hidden;points=[[0,0.5],[1,0.5]];portConstraint=eastwest;rotatable=0;whiteSpace=wrap;html=1;fontSize=13;" parent="aZmOVXOk3B2EYtA5Geev-31" vertex="1">
          <mxGeometry y="180" width="120" height="30" as="geometry" />
        </mxCell>
        <mxCell id="aZmOVXOk3B2EYtA5Geev-38" value="Inspection" style="text;strokeColor=none;fillColor=none;align=left;verticalAlign=middle;spacingLeft=4;spacingRight=4;overflow=hidden;points=[[0,0.5],[1,0.5]];portConstraint=eastwest;rotatable=0;whiteSpace=wrap;html=1;fontSize=13;" parent="aZmOVXOk3B2EYtA5Geev-31" vertex="1">
          <mxGeometry y="210" width="120" height="30" as="geometry" />
        </mxCell>
        <mxCell id="7EYHafyRi_EYMEZ_XVhg-1" value="MICRO ATtiny" style="swimlane;whiteSpace=wrap;html=1;" parent="7EYHafyRi_EYMEZ_XVhg-3" vertex="1">
          <mxGeometry x="170" y="484.75" width="210" height="395.25" as="geometry" />
        </mxCell>
        <mxCell id="02INJHvjmvBwod2YjTt--3" value="&lt;b&gt;LEDS and Buttons&lt;/b&gt;" style="swimlane;fontStyle=0;childLayout=stackLayout;horizontal=1;startSize=30;horizontalStack=0;resizeParent=1;resizeParentMax=0;resizeLast=0;collapsible=1;marginBottom=0;whiteSpace=wrap;html=1;" parent="7EYHafyRi_EYMEZ_XVhg-3" vertex="1">
          <mxGeometry x="170" y="890" width="160" height="60" as="geometry" />
        </mxCell>
        <mxCell id="02INJHvjmvBwod2YjTt--4" value="&lt;b&gt;Mission Selected: &lt;/b&gt;on" style="text;align=left;verticalAlign=middle;spacingLeft=4;spacingRight=4;overflow=hidden;points=[[0,0.5],[1,0.5]];portConstraint=eastwest;rotatable=0;whiteSpace=wrap;html=1;" parent="02INJHvjmvBwod2YjTt--3" vertex="1">
          <mxGeometry y="30" width="160" height="30" as="geometry" />
        </mxCell>
        <mxCell id="CQ1wmMg1kjNoGGf3bAGS-73" value="" style="fontStyle=1;align=center;verticalAlign=top;childLayout=stackLayout;horizontal=1;horizontalStack=0;resizeParent=1;resizeParentMax=0;resizeLast=0;marginBottom=0;" parent="7EYHafyRi_EYMEZ_XVhg-3" vertex="1">
          <mxGeometry x="257.5" y="81.75" width="150" height="181" as="geometry" />
        </mxCell>
        <mxCell id="CQ1wmMg1kjNoGGf3bAGS-74" value="&lt;b&gt;EBS Supervisor²&lt;br&gt;(Watchdog²)&lt;br&gt;&lt;/b&gt;" style="html=1;align=left;spacingLeft=4;verticalAlign=top;strokeColor=none;fillColor=none;whiteSpace=wrap;" parent="CQ1wmMg1kjNoGGf3bAGS-73" vertex="1">
          <mxGeometry width="150" height="40" as="geometry" />
        </mxCell>
        <mxCell id="CQ1wmMg1kjNoGGf3bAGS-75" value="" style="shape=module;jettyWidth=10;jettyHeight=4;strokeColor=#EA6B66;" parent="CQ1wmMg1kjNoGGf3bAGS-74" vertex="1">
          <mxGeometry x="1" width="16" height="20" relative="1" as="geometry">
            <mxPoint x="-25" y="9" as="offset" />
          </mxGeometry>
        </mxCell>
        <mxCell id="CQ1wmMg1kjNoGGf3bAGS-76" value="" style="line;strokeWidth=1;fillColor=none;align=left;verticalAlign=middle;spacingTop=-1;spacingLeft=3;spacingRight=3;rotatable=0;labelPosition=right;points=[];portConstraint=eastwest;" parent="CQ1wmMg1kjNoGGf3bAGS-73" vertex="1">
          <mxGeometry y="40" width="150" height="8" as="geometry" />
        </mxCell>
        <mxCell id="CQ1wmMg1kjNoGGf3bAGS-77" value="provided interfaces" style="html=1;align=center;spacingLeft=4;verticalAlign=top;strokeColor=none;fillColor=none;whiteSpace=wrap;fontStyle=1" parent="CQ1wmMg1kjNoGGf3bAGS-73" vertex="1">
          <mxGeometry y="48" width="150" height="25" as="geometry" />
        </mxCell>
        <mxCell id="CQ1wmMg1kjNoGGf3bAGS-96" value="Watchdog Ready" style="html=1;align=left;spacingLeft=4;verticalAlign=top;strokeColor=none;fillColor=none;whiteSpace=wrap;" parent="CQ1wmMg1kjNoGGf3bAGS-73" vertex="1">
          <mxGeometry y="73" width="150" height="25" as="geometry" />
        </mxCell>
        <mxCell id="CQ1wmMg1kjNoGGf3bAGS-79" value="" style="line;strokeWidth=1;fillColor=none;align=left;verticalAlign=middle;spacingTop=-1;spacingLeft=3;spacingRight=3;rotatable=0;labelPosition=right;points=[];portConstraint=eastwest;" parent="CQ1wmMg1kjNoGGf3bAGS-73" vertex="1">
          <mxGeometry y="98" width="150" height="8" as="geometry" />
        </mxCell>
        <mxCell id="CQ1wmMg1kjNoGGf3bAGS-80" value="required interfaces" style="html=1;align=center;spacingLeft=4;verticalAlign=top;strokeColor=none;fillColor=none;whiteSpace=wrap;fontStyle=1" parent="CQ1wmMg1kjNoGGf3bAGS-73" vertex="1">
          <mxGeometry y="106" width="150" height="25" as="geometry" />
        </mxCell>
        <mxCell id="aNWwgpqA71NvFxte948c-18" value="Watchdog Out" style="html=1;align=left;spacingLeft=4;verticalAlign=top;strokeColor=none;fillColor=none;whiteSpace=wrap;" parent="CQ1wmMg1kjNoGGf3bAGS-73" vertex="1">
          <mxGeometry y="131" width="150" height="25" as="geometry" />
        </mxCell>
        <mxCell id="CQ1wmMg1kjNoGGf3bAGS-81" value="Close SDC" style="html=1;align=left;spacingLeft=4;verticalAlign=top;strokeColor=none;fillColor=none;whiteSpace=wrap;" parent="CQ1wmMg1kjNoGGf3bAGS-73" vertex="1">
          <mxGeometry y="156" width="150" height="25" as="geometry" />
        </mxCell>
        <mxCell id="aNWwgpqA71NvFxte948c-30" value="" style="fontStyle=1;align=center;verticalAlign=top;childLayout=stackLayout;horizontal=1;horizontalStack=0;resizeParent=1;resizeParentMax=0;resizeLast=0;marginBottom=0;" parent="7EYHafyRi_EYMEZ_XVhg-3" vertex="1">
          <mxGeometry x="180" y="517.5" width="150" height="106" as="geometry" />
        </mxCell>
        <mxCell id="aNWwgpqA71NvFxte948c-31" value="&lt;b&gt;Mission Selector&lt;br&gt;&lt;/b&gt;" style="html=1;align=left;spacingLeft=4;verticalAlign=top;strokeColor=none;fillColor=none;whiteSpace=wrap;" parent="aNWwgpqA71NvFxte948c-30" vertex="1">
          <mxGeometry width="150" height="40" as="geometry" />
        </mxCell>
        <mxCell id="aNWwgpqA71NvFxte948c-32" value="" style="shape=module;jettyWidth=10;jettyHeight=4;strokeColor=#3399FF;" parent="aNWwgpqA71NvFxte948c-31" vertex="1">
          <mxGeometry x="1" width="16" height="20" relative="1" as="geometry">
            <mxPoint x="-25" y="9" as="offset" />
          </mxGeometry>
        </mxCell>
        <mxCell id="aNWwgpqA71NvFxte948c-33" value="" style="line;strokeWidth=1;fillColor=none;align=left;verticalAlign=middle;spacingTop=-1;spacingLeft=3;spacingRight=3;rotatable=0;labelPosition=right;points=[];portConstraint=eastwest;" parent="aNWwgpqA71NvFxte948c-30" vertex="1">
          <mxGeometry y="40" width="150" height="8" as="geometry" />
        </mxCell>
        <mxCell id="aNWwgpqA71NvFxte948c-34" value="provided interfaces" style="html=1;align=center;spacingLeft=4;verticalAlign=top;strokeColor=none;fillColor=none;whiteSpace=wrap;fontStyle=1" parent="aNWwgpqA71NvFxte948c-30" vertex="1">
          <mxGeometry y="48" width="150" height="25" as="geometry" />
        </mxCell>
        <mxCell id="aNWwgpqA71NvFxte948c-35" value="Mission Selected" style="html=1;align=left;spacingLeft=4;verticalAlign=top;strokeColor=none;fillColor=none;whiteSpace=wrap;" parent="aNWwgpqA71NvFxte948c-30" vertex="1">
          <mxGeometry y="73" width="150" height="25" as="geometry" />
        </mxCell>
        <mxCell id="aNWwgpqA71NvFxte948c-38" value="" style="line;strokeWidth=1;fillColor=none;align=left;verticalAlign=middle;spacingTop=-1;spacingLeft=3;spacingRight=3;rotatable=0;labelPosition=right;points=[];portConstraint=eastwest;" parent="aNWwgpqA71NvFxte948c-30" vertex="1">
          <mxGeometry y="98" width="150" height="8" as="geometry" />
        </mxCell>
        <mxCell id="aZmOVXOk3B2EYtA5Geev-40" value="Teensy Master" style="swimlane;whiteSpace=wrap;html=1;" parent="7EYHafyRi_EYMEZ_XVhg-3" vertex="1">
          <mxGeometry x="482.5" y="250.5" width="190" height="619.5" as="geometry" />
        </mxCell>
        <mxCell id="l7KghhQer-1Jxl8H2hNQ-29" value="" style="endArrow=none;html=1;rounded=0;strokeWidth=3;entryX=0.579;entryY=1.004;entryDx=0;entryDy=0;startArrow=classic;startFill=1;endFill=0;exitX=0;exitY=0.16;exitDx=0;exitDy=0;exitPerimeter=0;entryPerimeter=0;" parent="7EYHafyRi_EYMEZ_XVhg-3" source="aZmOVXOk3B2EYtA5Geev-26" target="l7KghhQer-1Jxl8H2hNQ-28" edge="1">
          <mxGeometry relative="1" as="geometry">
            <mxPoint x="659.6058091286309" y="319" as="sourcePoint" />
            <mxPoint x="642.5" y="197.75" as="targetPoint" />
          </mxGeometry>
        </mxCell>
        <mxCell id="l7KghhQer-1Jxl8H2hNQ-30" value="" style="shape=message;html=1;outlineConnect=0;" parent="l7KghhQer-1Jxl8H2hNQ-29" vertex="1">
          <mxGeometry width="20" height="14" relative="1" as="geometry">
            <mxPoint x="-10" y="-7" as="offset" />
          </mxGeometry>
        </mxCell>
        <mxCell id="5kyuxBSGGWj84Fsn8HG7-78" value="" style="endArrow=classic;html=1;rounded=0;strokeWidth=3;fillColor=#fff2cc;strokeColor=#000000;exitX=0.366;exitY=-0.004;exitDx=0;exitDy=0;exitPerimeter=0;entryX=0.426;entryY=0.999;entryDx=0;entryDy=0;entryPerimeter=0;" parent="7EYHafyRi_EYMEZ_XVhg-3" source="aZmOVXOk3B2EYtA5Geev-25" target="aZmOVXOk3B2EYtA5Geev-26" edge="1">
          <mxGeometry relative="1" as="geometry">
            <mxPoint x="283.5" y="485.75" as="sourcePoint" />
            <mxPoint x="362.5" y="519.75" as="targetPoint" />
          </mxGeometry>
        </mxCell>
        <mxCell id="5kyuxBSGGWj84Fsn8HG7-79" value="" style="shape=message;html=1;outlineConnect=0;" parent="5kyuxBSGGWj84Fsn8HG7-78" vertex="1">
          <mxGeometry width="20" height="14" relative="1" as="geometry">
            <mxPoint x="-10" y="-7" as="offset" />
          </mxGeometry>
        </mxCell>
        <mxCell id="aZmOVXOk3B2EYtA5Geev-165" value="" style="fontStyle=1;align=center;verticalAlign=top;childLayout=stackLayout;horizontal=1;horizontalStack=0;resizeParent=1;resizeParentMax=0;resizeLast=0;marginBottom=0;" parent="7EYHafyRi_EYMEZ_XVhg-3" vertex="1">
          <mxGeometry x="502.5" y="279" width="150" height="581" as="geometry" />
        </mxCell>
        <mxCell id="aZmOVXOk3B2EYtA5Geev-166" value="&lt;b&gt;Master Prog&lt;/b&gt;" style="html=1;align=left;spacingLeft=4;verticalAlign=top;strokeColor=none;fillColor=none;whiteSpace=wrap;" parent="aZmOVXOk3B2EYtA5Geev-165" vertex="1">
          <mxGeometry width="150" height="40" as="geometry" />
        </mxCell>
        <mxCell id="aZmOVXOk3B2EYtA5Geev-167" value="" style="shape=module;jettyWidth=10;jettyHeight=4;strokeColor=#3399FF;" parent="aZmOVXOk3B2EYtA5Geev-166" vertex="1">
          <mxGeometry x="1" width="16" height="20" relative="1" as="geometry">
            <mxPoint x="-25" y="9" as="offset" />
          </mxGeometry>
        </mxCell>
        <mxCell id="aZmOVXOk3B2EYtA5Geev-168" value="" style="line;strokeWidth=1;fillColor=none;align=left;verticalAlign=middle;spacingTop=-1;spacingLeft=3;spacingRight=3;rotatable=0;labelPosition=right;points=[];portConstraint=eastwest;" parent="aZmOVXOk3B2EYtA5Geev-165" vertex="1">
          <mxGeometry y="40" width="150" height="8" as="geometry" />
        </mxCell>
        <mxCell id="aZmOVXOk3B2EYtA5Geev-169" value="provided interfaces" style="html=1;align=center;spacingLeft=4;verticalAlign=top;strokeColor=none;fillColor=none;whiteSpace=wrap;fontStyle=1" parent="aZmOVXOk3B2EYtA5Geev-165" vertex="1">
          <mxGeometry y="48" width="150" height="25" as="geometry" />
        </mxCell>
        <mxCell id="CQ1wmMg1kjNoGGf3bAGS-41" value="&lt;font color=&quot;#9673a6&quot;&gt;Left Wheel RPM - CAN&lt;/font&gt;" style="html=1;align=left;spacingLeft=4;verticalAlign=top;strokeColor=none;fillColor=none;whiteSpace=wrap;" parent="aZmOVXOk3B2EYtA5Geev-165" vertex="1">
          <mxGeometry y="73" width="150" height="25" as="geometry" />
        </mxCell>
        <mxCell id="aNWwgpqA71NvFxte948c-19" value="Watchdog Out" style="html=1;align=left;spacingLeft=4;verticalAlign=top;strokeColor=none;fillColor=none;whiteSpace=wrap;" parent="aZmOVXOk3B2EYtA5Geev-165" vertex="1">
          <mxGeometry y="98" width="150" height="25" as="geometry" />
        </mxCell>
        <mxCell id="CQ1wmMg1kjNoGGf3bAGS-103" value="Close SDC" style="html=1;align=left;spacingLeft=4;verticalAlign=top;strokeColor=none;fillColor=none;whiteSpace=wrap;" parent="aZmOVXOk3B2EYtA5Geev-165" vertex="1">
          <mxGeometry y="123" width="150" height="25" as="geometry" />
        </mxCell>
        <mxCell id="sZuSeQ67okOJ5UxKlKqD-1" value="&lt;span style=&quot;text-align: center;&quot;&gt;EBS Solenoide 1&amp;amp;2&lt;/span&gt;" style="html=1;align=left;spacingLeft=4;verticalAlign=top;strokeColor=none;fillColor=none;whiteSpace=wrap;" parent="aZmOVXOk3B2EYtA5Geev-165" vertex="1">
          <mxGeometry y="148" width="150" height="25" as="geometry" />
        </mxCell>
        <mxCell id="sZuSeQ67okOJ5UxKlKqD-3" value="&lt;font color=&quot;#9673a6&quot;&gt;Selected Mission&lt;/font&gt;" style="html=1;align=left;spacingLeft=4;verticalAlign=top;strokeColor=none;fillColor=none;whiteSpace=wrap;" parent="aZmOVXOk3B2EYtA5Geev-165" vertex="1">
          <mxGeometry y="173" width="150" height="25" as="geometry" />
        </mxCell>
        <mxCell id="aZmOVXOk3B2EYtA5Geev-170" value="&lt;font color=&quot;#9673a6&quot;&gt;ASStatus&lt;/font&gt;" style="html=1;align=left;spacingLeft=4;verticalAlign=top;strokeColor=none;fillColor=none;whiteSpace=wrap;" parent="aZmOVXOk3B2EYtA5Geev-165" vertex="1">
          <mxGeometry y="198" width="150" height="25" as="geometry" />
        </mxCell>
        <mxCell id="NGaI6VRKh7LVpuEDAku1-2" value="&lt;font color=&quot;#d6b656&quot;&gt;Yellow_LED&lt;/font&gt;" style="html=1;align=left;spacingLeft=4;verticalAlign=top;strokeColor=none;fillColor=none;whiteSpace=wrap;" parent="aZmOVXOk3B2EYtA5Geev-165" vertex="1">
          <mxGeometry y="223" width="150" height="25" as="geometry" />
        </mxCell>
        <mxCell id="NGaI6VRKh7LVpuEDAku1-3" value="&lt;font color=&quot;#d6b656&quot;&gt;Blue_LED&lt;/font&gt;" style="html=1;align=left;spacingLeft=4;verticalAlign=top;strokeColor=none;fillColor=none;whiteSpace=wrap;" parent="aZmOVXOk3B2EYtA5Geev-165" vertex="1">
          <mxGeometry y="248" width="150" height="25" as="geometry" />
        </mxCell>
        <mxCell id="aZmOVXOk3B2EYtA5Geev-171" value="" style="line;strokeWidth=1;fillColor=none;align=left;verticalAlign=middle;spacingTop=-1;spacingLeft=3;spacingRight=3;rotatable=0;labelPosition=right;points=[];portConstraint=eastwest;" parent="aZmOVXOk3B2EYtA5Geev-165" vertex="1">
          <mxGeometry y="273" width="150" height="8" as="geometry" />
        </mxCell>
        <mxCell id="aZmOVXOk3B2EYtA5Geev-172" value="required interfaces" style="html=1;align=center;spacingLeft=4;verticalAlign=top;strokeColor=none;fillColor=none;whiteSpace=wrap;fontStyle=1" parent="aZmOVXOk3B2EYtA5Geev-165" vertex="1">
          <mxGeometry y="281" width="150" height="25" as="geometry" />
        </mxCell>
        <mxCell id="aZmOVXOk3B2EYtA5Geev-183" value="&lt;font color=&quot;#d6b656&quot;&gt;Selected Mission&lt;/font&gt;" style="html=1;align=left;spacingLeft=4;verticalAlign=top;strokeColor=none;fillColor=none;whiteSpace=wrap;" parent="aZmOVXOk3B2EYtA5Geev-165" vertex="1">
          <mxGeometry y="306" width="150" height="25" as="geometry" />
        </mxCell>
        <mxCell id="CQ1wmMg1kjNoGGf3bAGS-62" value="&lt;font color=&quot;#9673a6&quot;&gt;Hydraulic Sensor Data&lt;/font&gt;" style="html=1;align=left;spacingLeft=4;verticalAlign=top;strokeColor=none;fillColor=none;whiteSpace=wrap;" parent="aZmOVXOk3B2EYtA5Geev-165" vertex="1">
          <mxGeometry y="331" width="150" height="25" as="geometry" />
        </mxCell>
        <mxCell id="CQ1wmMg1kjNoGGf3bAGS-59" value="Watchdog Ready" style="html=1;align=left;spacingLeft=4;verticalAlign=top;strokeColor=none;fillColor=none;whiteSpace=wrap;" parent="aZmOVXOk3B2EYtA5Geev-165" vertex="1">
          <mxGeometry y="356" width="150" height="25" as="geometry" />
        </mxCell>
        <mxCell id="CQ1wmMg1kjNoGGf3bAGS-104" value="Pneumatic Sensor Data" style="html=1;align=left;spacingLeft=4;verticalAlign=top;strokeColor=none;fillColor=none;whiteSpace=wrap;" parent="aZmOVXOk3B2EYtA5Geev-165" vertex="1">
          <mxGeometry y="381" width="150" height="25" as="geometry" />
        </mxCell>
        <mxCell id="CQ1wmMg1kjNoGGf3bAGS-102" value="AS ATS (SDC at Master)" style="html=1;align=left;spacingLeft=4;verticalAlign=top;strokeColor=none;fillColor=none;whiteSpace=wrap;" parent="aZmOVXOk3B2EYtA5Geev-165" vertex="1">
          <mxGeometry y="406" width="150" height="25" as="geometry" />
        </mxCell>
        <mxCell id="aZmOVXOk3B2EYtA5Geev-198" value="&lt;font color=&quot;#d6b656&quot;&gt;Left Wheel RPM&lt;/font&gt;" style="html=1;align=left;spacingLeft=4;verticalAlign=top;strokeColor=none;fillColor=none;whiteSpace=wrap;" parent="aZmOVXOk3B2EYtA5Geev-165" vertex="1">
          <mxGeometry y="431" width="150" height="25" as="geometry" />
        </mxCell>
        <mxCell id="sZuSeQ67okOJ5UxKlKqD-2" value="&lt;font color=&quot;#9673a6&quot;&gt;Right Wheel RPM&lt;/font&gt;" style="html=1;align=left;spacingLeft=4;verticalAlign=top;strokeColor=none;fillColor=none;whiteSpace=wrap;" parent="aZmOVXOk3B2EYtA5Geev-165" vertex="1">
          <mxGeometry y="456" width="150" height="25" as="geometry" />
        </mxCell>
        <mxCell id="aZmOVXOk3B2EYtA5Geev-196" value="&lt;font color=&quot;#9673a6&quot;&gt;Emergency&lt;/font&gt;" style="html=1;align=left;spacingLeft=4;verticalAlign=top;strokeColor=none;fillColor=none;whiteSpace=wrap;" parent="aZmOVXOk3B2EYtA5Geev-165" vertex="1">
          <mxGeometry y="481" width="150" height="25" as="geometry" />
        </mxCell>
        <mxCell id="aZmOVXOk3B2EYtA5Geev-173" value="ASMS State" style="html=1;align=left;spacingLeft=4;verticalAlign=top;strokeColor=none;fillColor=none;whiteSpace=wrap;" parent="aZmOVXOk3B2EYtA5Geev-165" vertex="1">
          <mxGeometry y="506" width="150" height="25" as="geometry" />
        </mxCell>
        <mxCell id="NGaI6VRKh7LVpuEDAku1-9" value="&lt;font color=&quot;#9673a6&quot;&gt;TS State&lt;/font&gt;" style="html=1;align=left;spacingLeft=4;verticalAlign=top;strokeColor=none;fillColor=none;whiteSpace=wrap;" parent="aZmOVXOk3B2EYtA5Geev-165" vertex="1">
          <mxGeometry y="531" width="150" height="25" as="geometry" />
        </mxCell>
        <mxCell id="aZmOVXOk3B2EYtA5Geev-236" value="&lt;font color=&quot;#9673a6&quot;&gt;Mission Finished&lt;/font&gt;" style="html=1;align=left;spacingLeft=4;verticalAlign=top;strokeColor=none;fillColor=none;whiteSpace=wrap;" parent="aZmOVXOk3B2EYtA5Geev-165" vertex="1">
          <mxGeometry y="556" width="150" height="25" as="geometry" />
        </mxCell>
        <mxCell id="aNWwgpqA71NvFxte948c-1" value="" style="endArrow=classic;html=1;rounded=0;strokeWidth=3;fillColor=#e1d5e7;strokeColor=#000000;startArrow=classic;startFill=1;shape=link;exitX=0.845;exitY=-0.001;exitDx=0;exitDy=0;exitPerimeter=0;entryX=0.06;entryY=0.998;entryDx=0;entryDy=0;entryPerimeter=0;" parent="7EYHafyRi_EYMEZ_XVhg-3" source="aZmOVXOk3B2EYtA5Geev-27" target="aZmOVXOk3B2EYtA5Geev-26" edge="1">
          <mxGeometry relative="1" as="geometry">
            <mxPoint x="466.5" y="278.75" as="sourcePoint" />
            <mxPoint x="360.5" y="327.75" as="targetPoint" />
          </mxGeometry>
        </mxCell>
        <mxCell id="aNWwgpqA71NvFxte948c-2" value="" style="shape=message;html=1;outlineConnect=0;" parent="aNWwgpqA71NvFxte948c-1" vertex="1">
          <mxGeometry width="20" height="14" relative="1" as="geometry">
            <mxPoint x="-10" y="-7" as="offset" />
          </mxGeometry>
        </mxCell>
        <mxCell id="aZmOVXOk3B2EYtA5Geev-45" value="&lt;div style=&quot;text-align: center;&quot;&gt;&lt;span style=&quot;background-color: initial;&quot;&gt;&lt;b&gt;ASSI&lt;/b&gt;&lt;/span&gt;&lt;/div&gt;" style="verticalAlign=top;align=left;spacingTop=8;spacingLeft=2;spacingRight=12;shape=cube;size=10;direction=south;fontStyle=4;html=1;whiteSpace=wrap;" parent="7EYHafyRi_EYMEZ_XVhg-3" vertex="1">
          <mxGeometry x="20" y="50" width="210" height="360" as="geometry" />
        </mxCell>
        <mxCell id="aZmOVXOk3B2EYtA5Geev-52" value="&lt;b&gt;LEDS&lt;/b&gt;" style="swimlane;fontStyle=0;childLayout=stackLayout;horizontal=1;startSize=30;horizontalStack=0;resizeParent=1;resizeParentMax=0;resizeLast=0;collapsible=1;marginBottom=0;whiteSpace=wrap;html=1;" parent="7EYHafyRi_EYMEZ_XVhg-3" vertex="1">
          <mxGeometry x="40" y="220" width="170" height="180" as="geometry" />
        </mxCell>
        <mxCell id="aZmOVXOk3B2EYtA5Geev-53" value="&lt;b&gt;AS OFF: &lt;/b&gt;off" style="text;align=left;verticalAlign=middle;spacingLeft=4;spacingRight=4;overflow=hidden;points=[[0,0.5],[1,0.5]];portConstraint=eastwest;rotatable=0;whiteSpace=wrap;html=1;" parent="aZmOVXOk3B2EYtA5Geev-52" vertex="1">
          <mxGeometry y="30" width="170" height="30" as="geometry" />
        </mxCell>
        <mxCell id="aZmOVXOk3B2EYtA5Geev-54" value="&lt;b&gt;AS Driving:&lt;/b&gt; yellow flashing" style="text;strokeColor=#d6b656;fillColor=#FFFF66;align=left;verticalAlign=middle;spacingLeft=4;spacingRight=4;overflow=hidden;points=[[0,0.5],[1,0.5]];portConstraint=eastwest;rotatable=0;whiteSpace=wrap;html=1;gradientColor=#FFFFFF;" parent="aZmOVXOk3B2EYtA5Geev-52" vertex="1">
          <mxGeometry y="60" width="170" height="30" as="geometry" />
        </mxCell>
        <mxCell id="aZmOVXOk3B2EYtA5Geev-55" value="&lt;b&gt;AS Ready:&lt;/b&gt; yellow continuous" style="text;strokeColor=#d6b656;fillColor=#FFFF66;align=left;verticalAlign=middle;spacingLeft=4;spacingRight=4;overflow=hidden;points=[[0,0.5],[1,0.5]];portConstraint=eastwest;rotatable=0;whiteSpace=wrap;html=1;" parent="aZmOVXOk3B2EYtA5Geev-52" vertex="1">
          <mxGeometry y="90" width="170" height="30" as="geometry" />
        </mxCell>
        <mxCell id="aZmOVXOk3B2EYtA5Geev-56" value="&lt;b&gt;AS Emergency:&lt;/b&gt; blue flashing" style="text;strokeColor=#10739e;fillColor=#b1ddf0;align=left;verticalAlign=middle;spacingLeft=4;spacingRight=4;overflow=hidden;points=[[0,0.5],[1,0.5]];portConstraint=eastwest;rotatable=0;whiteSpace=wrap;html=1;gradientColor=#FFFFFF;" parent="aZmOVXOk3B2EYtA5Geev-52" vertex="1">
          <mxGeometry y="120" width="170" height="30" as="geometry" />
        </mxCell>
        <mxCell id="aZmOVXOk3B2EYtA5Geev-57" value="&lt;b&gt;AS Finished:&lt;/b&gt; blue continuous" style="text;strokeColor=#10739e;fillColor=#b1ddf0;align=left;verticalAlign=middle;spacingLeft=4;spacingRight=4;overflow=hidden;points=[[0,0.5],[1,0.5]];portConstraint=eastwest;rotatable=0;whiteSpace=wrap;html=1;" parent="aZmOVXOk3B2EYtA5Geev-52" vertex="1">
          <mxGeometry y="150" width="170" height="30" as="geometry" />
        </mxCell>
        <mxCell id="sZuSeQ67okOJ5UxKlKqD-40" value="" style="fontStyle=1;align=center;verticalAlign=top;childLayout=stackLayout;horizontal=1;horizontalStack=0;resizeParent=1;resizeParentMax=0;resizeLast=0;marginBottom=0;" parent="7EYHafyRi_EYMEZ_XVhg-3" vertex="1">
          <mxGeometry x="40" y="82" width="150" height="131" as="geometry" />
        </mxCell>
        <mxCell id="sZuSeQ67okOJ5UxKlKqD-41" value="&lt;b&gt;ASS Indicator&lt;br&gt;&lt;/b&gt;" style="html=1;align=left;spacingLeft=4;verticalAlign=top;strokeColor=none;fillColor=none;whiteSpace=wrap;" parent="sZuSeQ67okOJ5UxKlKqD-40" vertex="1">
          <mxGeometry width="150" height="40" as="geometry" />
        </mxCell>
        <mxCell id="sZuSeQ67okOJ5UxKlKqD-42" value="" style="shape=module;jettyWidth=10;jettyHeight=4;strokeColor=#EA6B66;" parent="sZuSeQ67okOJ5UxKlKqD-41" vertex="1">
          <mxGeometry x="1" width="16" height="20" relative="1" as="geometry">
            <mxPoint x="-25" y="9" as="offset" />
          </mxGeometry>
        </mxCell>
        <mxCell id="sZuSeQ67okOJ5UxKlKqD-43" value="" style="line;strokeWidth=1;fillColor=none;align=left;verticalAlign=middle;spacingTop=-1;spacingLeft=3;spacingRight=3;rotatable=0;labelPosition=right;points=[];portConstraint=eastwest;" parent="sZuSeQ67okOJ5UxKlKqD-40" vertex="1">
          <mxGeometry y="40" width="150" height="8" as="geometry" />
        </mxCell>
        <mxCell id="sZuSeQ67okOJ5UxKlKqD-44" value="required interfaces" style="html=1;align=center;spacingLeft=4;verticalAlign=top;strokeColor=none;fillColor=none;whiteSpace=wrap;fontStyle=1" parent="sZuSeQ67okOJ5UxKlKqD-40" vertex="1">
          <mxGeometry y="48" width="150" height="25" as="geometry" />
        </mxCell>
        <mxCell id="sZuSeQ67okOJ5UxKlKqD-45" value="&lt;font color=&quot;#d6b656&quot;&gt;Yellow_LED&lt;/font&gt;" style="html=1;align=left;spacingLeft=4;verticalAlign=top;strokeColor=none;fillColor=none;whiteSpace=wrap;" parent="sZuSeQ67okOJ5UxKlKqD-40" vertex="1">
          <mxGeometry y="73" width="150" height="25" as="geometry" />
        </mxCell>
        <mxCell id="NGaI6VRKh7LVpuEDAku1-1" value="&lt;font color=&quot;#d6b656&quot;&gt;Blue_LED&lt;/font&gt;" style="html=1;align=left;spacingLeft=4;verticalAlign=top;strokeColor=none;fillColor=none;whiteSpace=wrap;" parent="sZuSeQ67okOJ5UxKlKqD-40" vertex="1">
          <mxGeometry y="98" width="150" height="25" as="geometry" />
        </mxCell>
        <mxCell id="sZuSeQ67okOJ5UxKlKqD-46" value="" style="line;strokeWidth=1;fillColor=none;align=left;verticalAlign=middle;spacingTop=-1;spacingLeft=3;spacingRight=3;rotatable=0;labelPosition=right;points=[];portConstraint=eastwest;" parent="sZuSeQ67okOJ5UxKlKqD-40" vertex="1">
          <mxGeometry y="123" width="150" height="8" as="geometry" />
        </mxCell>
        <mxCell id="5kyuxBSGGWj84Fsn8HG7-76" value="" style="endArrow=classic;html=1;rounded=0;entryX=0;entryY=0;entryDx=330;entryDy=0;strokeWidth=3;entryPerimeter=0;strokeColor=#D6B656;exitX=0.16;exitY=1.011;exitDx=0;exitDy=0;exitPerimeter=0;" parent="7EYHafyRi_EYMEZ_XVhg-3" source="aZmOVXOk3B2EYtA5Geev-26" target="aZmOVXOk3B2EYtA5Geev-45" edge="1">
          <mxGeometry relative="1" as="geometry">
            <mxPoint x="362.5" y="357.75" as="sourcePoint" />
            <mxPoint x="252.5" y="292.75" as="targetPoint" />
          </mxGeometry>
        </mxCell>
        <mxCell id="5kyuxBSGGWj84Fsn8HG7-77" value="" style="shape=message;html=1;outlineConnect=0;" parent="5kyuxBSGGWj84Fsn8HG7-76" vertex="1">
          <mxGeometry width="20" height="14" relative="1" as="geometry">
            <mxPoint x="-10" y="-7" as="offset" />
          </mxGeometry>
        </mxCell>
        <mxCell id="GeWjYYyK9IcbD7qX6hDq-36" value="&lt;b&gt;LEDS and Buttons&lt;/b&gt;" style="swimlane;fontStyle=0;childLayout=stackLayout;horizontal=1;startSize=30;horizontalStack=0;resizeParent=1;resizeParentMax=0;resizeLast=0;collapsible=1;marginBottom=0;whiteSpace=wrap;html=1;" vertex="1" parent="7EYHafyRi_EYMEZ_XVhg-3">
          <mxGeometry x="502.5" y="900" width="160" height="60" as="geometry" />
        </mxCell>
        <mxCell id="GeWjYYyK9IcbD7qX6hDq-37" value="&lt;b&gt;Close SDC (Master)&lt;/b&gt;" style="text;align=left;verticalAlign=middle;spacingLeft=4;spacingRight=4;overflow=hidden;points=[[0,0.5],[1,0.5]];portConstraint=eastwest;rotatable=0;whiteSpace=wrap;html=1;" vertex="1" parent="GeWjYYyK9IcbD7qX6hDq-36">
          <mxGeometry y="30" width="160" height="30" as="geometry" />
        </mxCell>
        <mxCell id="GeWjYYyK9IcbD7qX6hDq-40" value="" style="endArrow=classic;html=1;rounded=0;strokeWidth=3;fillColor=#fff2cc;strokeColor=#000000;exitX=0.5;exitY=1;exitDx=0;exitDy=0;entryX=0.5;entryY=0;entryDx=0;entryDy=0;" edge="1" parent="7EYHafyRi_EYMEZ_XVhg-3" source="aZmOVXOk3B2EYtA5Geev-40" target="GeWjYYyK9IcbD7qX6hDq-36">
          <mxGeometry relative="1" as="geometry">
            <mxPoint x="521.5" y="980" as="sourcePoint" />
            <mxPoint x="633.5" y="912" as="targetPoint" />
          </mxGeometry>
        </mxCell>
        <mxCell id="GeWjYYyK9IcbD7qX6hDq-41" value="" style="shape=message;html=1;outlineConnect=0;" vertex="1" parent="GeWjYYyK9IcbD7qX6hDq-40">
          <mxGeometry width="20" height="14" relative="1" as="geometry">
            <mxPoint x="-10" y="-7" as="offset" />
          </mxGeometry>
        </mxCell>
        <mxCell id="l7KghhQer-1Jxl8H2hNQ-100" value="Sensors" style="swimlane;whiteSpace=wrap;html=1;direction=west;" parent="1" vertex="1">
          <mxGeometry x="950" y="100" width="360" height="20" as="geometry" />
        </mxCell>
        <mxCell id="7EYHafyRi_EYMEZ_XVhg-16" value="" style="endArrow=classic;html=1;rounded=0;strokeWidth=3;fillColor=#fff2cc;strokeColor=#00CC00;entryX=0.309;entryY=1.003;entryDx=0;entryDy=0;entryPerimeter=0;exitX=1;exitY=0.5;exitDx=0;exitDy=0;" parent="1" source="sZuSeQ67okOJ5UxKlKqD-207" target="aZmOVXOk3B2EYtA5Geev-2" edge="1">
          <mxGeometry relative="1" as="geometry">
            <mxPoint x="1325" y="790.5" as="sourcePoint" />
            <mxPoint x="1588" y="594" as="targetPoint" />
          </mxGeometry>
        </mxCell>
        <mxCell id="7EYHafyRi_EYMEZ_XVhg-17" value="" style="shape=message;html=1;outlineConnect=0;" parent="7EYHafyRi_EYMEZ_XVhg-16" vertex="1">
          <mxGeometry width="20" height="14" relative="1" as="geometry">
            <mxPoint x="-10" y="-7" as="offset" />
          </mxGeometry>
        </mxCell>
        <mxCell id="7EYHafyRi_EYMEZ_XVhg-18" value="&lt;span style=&quot;font-size: 15px;&quot;&gt;&lt;font color=&quot;#00cc66&quot;&gt;Ethernet&lt;/font&gt;&lt;/span&gt;" style="text;html=1;strokeColor=none;fillColor=none;align=center;verticalAlign=middle;whiteSpace=wrap;rounded=0;" parent="1" vertex="1">
          <mxGeometry x="1513" y="228" width="70" height="20" as="geometry" />
        </mxCell>
        <mxCell id="7EYHafyRi_EYMEZ_XVhg-19" value="" style="endArrow=classic;html=1;rounded=0;strokeWidth=2;fillColor=#e1d5e7;strokeColor=#00CC00;" parent="1" edge="1">
          <mxGeometry relative="1" as="geometry">
            <mxPoint x="1483" y="239.76" as="sourcePoint" />
            <mxPoint x="1513" y="239.76" as="targetPoint" />
          </mxGeometry>
        </mxCell>
        <mxCell id="02INJHvjmvBwod2YjTt--11" value="" style="shape=table;startSize=0;container=1;collapsible=0;childLayout=tableLayout;fontSize=16;" parent="1" vertex="1">
          <mxGeometry x="1040" y="1200" width="1318" height="1080" as="geometry" />
        </mxCell>
        <mxCell id="02INJHvjmvBwod2YjTt--12" value="" style="shape=tableRow;horizontal=0;startSize=0;swimlaneHead=0;swimlaneBody=0;strokeColor=inherit;top=0;left=0;bottom=0;right=0;collapsible=0;dropTarget=0;fillColor=none;points=[[0,0.5],[1,0.5]];portConstraint=eastwest;fontSize=16;" parent="02INJHvjmvBwod2YjTt--11" vertex="1">
          <mxGeometry width="1318" height="70" as="geometry" />
        </mxCell>
        <mxCell id="02INJHvjmvBwod2YjTt--13" value="&lt;b&gt;Program&lt;/b&gt;" style="shape=partialRectangle;html=1;whiteSpace=wrap;connectable=0;strokeColor=inherit;overflow=hidden;fillColor=none;top=0;left=0;bottom=0;right=0;pointerEvents=1;fontSize=16;" parent="02INJHvjmvBwod2YjTt--12" vertex="1">
          <mxGeometry width="198" height="70" as="geometry">
            <mxRectangle width="198" height="70" as="alternateBounds" />
          </mxGeometry>
        </mxCell>
        <mxCell id="02INJHvjmvBwod2YjTt--15" value="&lt;b&gt;Function&lt;/b&gt;" style="shape=partialRectangle;html=1;whiteSpace=wrap;connectable=0;strokeColor=inherit;overflow=hidden;fillColor=none;top=0;left=0;bottom=0;right=0;pointerEvents=1;fontSize=16;" parent="02INJHvjmvBwod2YjTt--12" vertex="1">
          <mxGeometry x="198" width="280" height="70" as="geometry">
            <mxRectangle width="280" height="70" as="alternateBounds" />
          </mxGeometry>
        </mxCell>
        <mxCell id="sZuSeQ67okOJ5UxKlKqD-10" value="&lt;b&gt;Board&lt;/b&gt;" style="shape=partialRectangle;html=1;whiteSpace=wrap;connectable=0;strokeColor=inherit;overflow=hidden;fillColor=none;top=0;left=0;bottom=0;right=0;pointerEvents=1;fontSize=16;" parent="02INJHvjmvBwod2YjTt--12" vertex="1">
          <mxGeometry x="478" width="280" height="70" as="geometry">
            <mxRectangle width="280" height="70" as="alternateBounds" />
          </mxGeometry>
        </mxCell>
        <mxCell id="TI3BOCbSlOqiKE-nEU_P-13" value="&lt;b&gt;Notes&lt;/b&gt;" style="shape=partialRectangle;html=1;whiteSpace=wrap;connectable=0;strokeColor=inherit;overflow=hidden;fillColor=none;top=0;left=0;bottom=0;right=0;pointerEvents=1;fontSize=16;" parent="02INJHvjmvBwod2YjTt--12" vertex="1">
          <mxGeometry x="758" width="280" height="70" as="geometry">
            <mxRectangle width="280" height="70" as="alternateBounds" />
          </mxGeometry>
        </mxCell>
        <mxCell id="CQ1wmMg1kjNoGGf3bAGS-1" value="&lt;b&gt;Software?&lt;/b&gt;" style="shape=partialRectangle;html=1;whiteSpace=wrap;connectable=0;strokeColor=inherit;overflow=hidden;fillColor=none;top=0;left=0;bottom=0;right=0;pointerEvents=1;fontSize=16;" parent="02INJHvjmvBwod2YjTt--12" vertex="1">
          <mxGeometry x="1038" width="280" height="70" as="geometry">
            <mxRectangle width="280" height="70" as="alternateBounds" />
          </mxGeometry>
        </mxCell>
        <mxCell id="02INJHvjmvBwod2YjTt--16" value="" style="shape=tableRow;horizontal=0;startSize=0;swimlaneHead=0;swimlaneBody=0;strokeColor=inherit;top=0;left=0;bottom=0;right=0;collapsible=0;dropTarget=0;fillColor=none;points=[[0,0.5],[1,0.5]];portConstraint=eastwest;fontSize=16;" parent="02INJHvjmvBwod2YjTt--11" vertex="1">
          <mxGeometry y="70" width="1318" height="360" as="geometry" />
        </mxCell>
        <mxCell id="02INJHvjmvBwod2YjTt--17" value="Master Prog (aka ASS State Machine aka Supervisor)" style="shape=partialRectangle;html=1;whiteSpace=wrap;connectable=0;strokeColor=inherit;overflow=hidden;fillColor=none;top=0;left=0;bottom=0;right=0;pointerEvents=1;fontSize=16;" parent="02INJHvjmvBwod2YjTt--16" vertex="1">
          <mxGeometry width="198" height="360" as="geometry">
            <mxRectangle width="198" height="360" as="alternateBounds" />
          </mxGeometry>
        </mxCell>
        <mxCell id="02INJHvjmvBwod2YjTt--19" value="- ASS State Machine and behaviour on its transitions:&lt;br&gt;&lt;blockquote style=&quot;margin: 0 0 0 40px; border: none; padding: 0px;&quot;&gt;- Supervise critical components state&lt;br&gt;- Calculate AS State&lt;br&gt;- Perform actions required by AS State&lt;/blockquote&gt;&lt;blockquote style=&quot;margin: 0 0 0 40px; border: none; padding: 0px;&quot;&gt;&lt;span style=&quot;background-color: initial;&quot;&gt;- Translates from Digital / Analog to CAN and vice-versa&lt;/span&gt;&lt;br&gt;&lt;/blockquote&gt;" style="shape=partialRectangle;html=1;whiteSpace=wrap;connectable=0;strokeColor=inherit;overflow=hidden;fillColor=none;top=0;left=0;bottom=0;right=0;pointerEvents=1;fontSize=16;align=left;" parent="02INJHvjmvBwod2YjTt--16" vertex="1">
          <mxGeometry x="198" width="280" height="360" as="geometry">
            <mxRectangle width="280" height="360" as="alternateBounds" />
          </mxGeometry>
        </mxCell>
        <mxCell id="sZuSeQ67okOJ5UxKlKqD-11" value="Master PCB" style="shape=partialRectangle;html=1;whiteSpace=wrap;connectable=0;strokeColor=inherit;overflow=hidden;fillColor=none;top=0;left=0;bottom=0;right=0;pointerEvents=1;fontSize=16;" parent="02INJHvjmvBwod2YjTt--16" vertex="1">
          <mxGeometry x="478" width="280" height="360" as="geometry">
            <mxRectangle width="280" height="360" as="alternateBounds" />
          </mxGeometry>
        </mxCell>
        <mxCell id="TI3BOCbSlOqiKE-nEU_P-14" value="" style="shape=partialRectangle;html=1;whiteSpace=wrap;connectable=0;strokeColor=inherit;overflow=hidden;fillColor=none;top=0;left=0;bottom=0;right=0;pointerEvents=1;fontSize=16;" parent="02INJHvjmvBwod2YjTt--16" vertex="1">
          <mxGeometry x="758" width="280" height="360" as="geometry">
            <mxRectangle width="280" height="360" as="alternateBounds" />
          </mxGeometry>
        </mxCell>
        <mxCell id="CQ1wmMg1kjNoGGf3bAGS-2" value="Yes" style="shape=partialRectangle;html=1;whiteSpace=wrap;connectable=0;strokeColor=inherit;overflow=hidden;fillColor=none;top=0;left=0;bottom=0;right=0;pointerEvents=1;fontSize=16;" parent="02INJHvjmvBwod2YjTt--16" vertex="1">
          <mxGeometry x="1038" width="280" height="360" as="geometry">
            <mxRectangle width="280" height="360" as="alternateBounds" />
          </mxGeometry>
        </mxCell>
        <mxCell id="02INJHvjmvBwod2YjTt--20" value="" style="shape=tableRow;horizontal=0;startSize=0;swimlaneHead=0;swimlaneBody=0;strokeColor=inherit;top=0;left=0;bottom=0;right=0;collapsible=0;dropTarget=0;fillColor=none;points=[[0,0.5],[1,0.5]];portConstraint=eastwest;fontSize=16;" parent="02INJHvjmvBwod2YjTt--11" vertex="1">
          <mxGeometry y="430" width="1318" height="90" as="geometry" />
        </mxCell>
        <mxCell id="02INJHvjmvBwod2YjTt--21" value="EBS Supervisor² aka EBS PCB aka Watchdog" style="shape=partialRectangle;html=1;whiteSpace=wrap;connectable=0;strokeColor=inherit;overflow=hidden;fillColor=none;top=0;left=0;bottom=0;right=0;pointerEvents=1;fontSize=16;" parent="02INJHvjmvBwod2YjTt--20" vertex="1">
          <mxGeometry width="198" height="90" as="geometry">
            <mxRectangle width="198" height="90" as="alternateBounds" />
          </mxGeometry>
        </mxCell>
        <mxCell id="02INJHvjmvBwod2YjTt--23" value="- Supervises the Supervisor State, making sure the supervisor is not down&lt;br&gt;- Opens/Closes SDC at EBS upon Supervisor Request" style="shape=partialRectangle;html=1;whiteSpace=wrap;connectable=0;strokeColor=inherit;overflow=hidden;fillColor=none;top=0;left=0;bottom=0;right=0;pointerEvents=1;fontSize=16;" parent="02INJHvjmvBwod2YjTt--20" vertex="1">
          <mxGeometry x="198" width="280" height="90" as="geometry">
            <mxRectangle width="280" height="90" as="alternateBounds" />
          </mxGeometry>
        </mxCell>
        <mxCell id="sZuSeQ67okOJ5UxKlKqD-12" value="SDC Logic PCB" style="shape=partialRectangle;html=1;whiteSpace=wrap;connectable=0;strokeColor=inherit;overflow=hidden;fillColor=none;top=0;left=0;bottom=0;right=0;pointerEvents=1;fontSize=16;" parent="02INJHvjmvBwod2YjTt--20" vertex="1">
          <mxGeometry x="478" width="280" height="90" as="geometry">
            <mxRectangle width="280" height="90" as="alternateBounds" />
          </mxGeometry>
        </mxCell>
        <mxCell id="TI3BOCbSlOqiKE-nEU_P-15" value="- Has to have access to SDC" style="shape=partialRectangle;html=1;whiteSpace=wrap;connectable=0;strokeColor=inherit;overflow=hidden;fillColor=none;top=0;left=0;bottom=0;right=0;pointerEvents=1;fontSize=16;" parent="02INJHvjmvBwod2YjTt--20" vertex="1">
          <mxGeometry x="758" width="280" height="90" as="geometry">
            <mxRectangle width="280" height="90" as="alternateBounds" />
          </mxGeometry>
        </mxCell>
        <mxCell id="CQ1wmMg1kjNoGGf3bAGS-3" value="No" style="shape=partialRectangle;html=1;whiteSpace=wrap;connectable=0;strokeColor=inherit;overflow=hidden;fillColor=none;top=0;left=0;bottom=0;right=0;pointerEvents=1;fontSize=16;" parent="02INJHvjmvBwod2YjTt--20" vertex="1">
          <mxGeometry x="1038" width="280" height="90" as="geometry">
            <mxRectangle width="280" height="90" as="alternateBounds" />
          </mxGeometry>
        </mxCell>
        <mxCell id="TI3BOCbSlOqiKE-nEU_P-1" style="shape=tableRow;horizontal=0;startSize=0;swimlaneHead=0;swimlaneBody=0;strokeColor=inherit;top=0;left=0;bottom=0;right=0;collapsible=0;dropTarget=0;fillColor=none;points=[[0,0.5],[1,0.5]];portConstraint=eastwest;fontSize=16;" parent="02INJHvjmvBwod2YjTt--11" vertex="1">
          <mxGeometry y="520" width="1318" height="70" as="geometry" />
        </mxCell>
        <mxCell id="TI3BOCbSlOqiKE-nEU_P-2" value="ROS2 AS System" style="shape=partialRectangle;html=1;whiteSpace=wrap;connectable=0;strokeColor=inherit;overflow=hidden;fillColor=none;top=0;left=0;bottom=0;right=0;pointerEvents=1;fontSize=16;" parent="TI3BOCbSlOqiKE-nEU_P-1" vertex="1">
          <mxGeometry width="198" height="70" as="geometry">
            <mxRectangle width="198" height="70" as="alternateBounds" />
          </mxGeometry>
        </mxCell>
        <mxCell id="TI3BOCbSlOqiKE-nEU_P-3" value="- Issue driving commands&lt;br&gt;- Detect end of mission&lt;br&gt;- Detect possible emergency" style="shape=partialRectangle;html=1;whiteSpace=wrap;connectable=0;strokeColor=inherit;overflow=hidden;fillColor=none;top=0;left=0;bottom=0;right=0;pointerEvents=1;fontSize=16;" parent="TI3BOCbSlOqiKE-nEU_P-1" vertex="1">
          <mxGeometry x="198" width="280" height="70" as="geometry">
            <mxRectangle width="280" height="70" as="alternateBounds" />
          </mxGeometry>
        </mxCell>
        <mxCell id="sZuSeQ67okOJ5UxKlKqD-13" value="AS Processing Unit" style="shape=partialRectangle;html=1;whiteSpace=wrap;connectable=0;strokeColor=inherit;overflow=hidden;fillColor=none;top=0;left=0;bottom=0;right=0;pointerEvents=1;fontSize=16;" parent="TI3BOCbSlOqiKE-nEU_P-1" vertex="1">
          <mxGeometry x="478" width="280" height="70" as="geometry">
            <mxRectangle width="280" height="70" as="alternateBounds" />
          </mxGeometry>
        </mxCell>
        <mxCell id="TI3BOCbSlOqiKE-nEU_P-18" style="shape=partialRectangle;html=1;whiteSpace=wrap;connectable=0;strokeColor=inherit;overflow=hidden;fillColor=none;top=0;left=0;bottom=0;right=0;pointerEvents=1;fontSize=16;" parent="TI3BOCbSlOqiKE-nEU_P-1" vertex="1">
          <mxGeometry x="758" width="280" height="70" as="geometry">
            <mxRectangle width="280" height="70" as="alternateBounds" />
          </mxGeometry>
        </mxCell>
        <mxCell id="CQ1wmMg1kjNoGGf3bAGS-6" value="Yes" style="shape=partialRectangle;html=1;whiteSpace=wrap;connectable=0;strokeColor=inherit;overflow=hidden;fillColor=none;top=0;left=0;bottom=0;right=0;pointerEvents=1;fontSize=16;" parent="TI3BOCbSlOqiKE-nEU_P-1" vertex="1">
          <mxGeometry x="1038" width="280" height="70" as="geometry">
            <mxRectangle width="280" height="70" as="alternateBounds" />
          </mxGeometry>
        </mxCell>
        <mxCell id="CQ1wmMg1kjNoGGf3bAGS-63" style="shape=tableRow;horizontal=0;startSize=0;swimlaneHead=0;swimlaneBody=0;strokeColor=inherit;top=0;left=0;bottom=0;right=0;collapsible=0;dropTarget=0;fillColor=none;points=[[0,0.5],[1,0.5]];portConstraint=eastwest;fontSize=16;" parent="02INJHvjmvBwod2YjTt--11" vertex="1">
          <mxGeometry y="590" width="1318" height="70" as="geometry" />
        </mxCell>
        <mxCell id="CQ1wmMg1kjNoGGf3bAGS-64" value="ASS Indicator" style="shape=partialRectangle;html=1;whiteSpace=wrap;connectable=0;strokeColor=inherit;overflow=hidden;fillColor=none;top=0;left=0;bottom=0;right=0;pointerEvents=1;fontSize=16;" parent="CQ1wmMg1kjNoGGf3bAGS-63" vertex="1">
          <mxGeometry width="198" height="70" as="geometry">
            <mxRectangle width="198" height="70" as="alternateBounds" />
          </mxGeometry>
        </mxCell>
        <mxCell id="CQ1wmMg1kjNoGGf3bAGS-65" value="- Showcases Autonomous System Status" style="shape=partialRectangle;html=1;whiteSpace=wrap;connectable=0;strokeColor=inherit;overflow=hidden;fillColor=none;top=0;left=0;bottom=0;right=0;pointerEvents=1;fontSize=16;" parent="CQ1wmMg1kjNoGGf3bAGS-63" vertex="1">
          <mxGeometry x="198" width="280" height="70" as="geometry">
            <mxRectangle width="280" height="70" as="alternateBounds" />
          </mxGeometry>
        </mxCell>
        <mxCell id="sZuSeQ67okOJ5UxKlKqD-14" value="ASSI" style="shape=partialRectangle;html=1;whiteSpace=wrap;connectable=0;strokeColor=inherit;overflow=hidden;fillColor=none;top=0;left=0;bottom=0;right=0;pointerEvents=1;fontSize=16;" parent="CQ1wmMg1kjNoGGf3bAGS-63" vertex="1">
          <mxGeometry x="478" width="280" height="70" as="geometry">
            <mxRectangle width="280" height="70" as="alternateBounds" />
          </mxGeometry>
        </mxCell>
        <mxCell id="CQ1wmMg1kjNoGGf3bAGS-66" style="shape=partialRectangle;html=1;whiteSpace=wrap;connectable=0;strokeColor=inherit;overflow=hidden;fillColor=none;top=0;left=0;bottom=0;right=0;pointerEvents=1;fontSize=16;" parent="CQ1wmMg1kjNoGGf3bAGS-63" vertex="1">
          <mxGeometry x="758" width="280" height="70" as="geometry">
            <mxRectangle width="280" height="70" as="alternateBounds" />
          </mxGeometry>
        </mxCell>
        <mxCell id="CQ1wmMg1kjNoGGf3bAGS-67" value="No" style="shape=partialRectangle;html=1;whiteSpace=wrap;connectable=0;strokeColor=inherit;overflow=hidden;fillColor=none;top=0;left=0;bottom=0;right=0;pointerEvents=1;fontSize=16;" parent="CQ1wmMg1kjNoGGf3bAGS-63" vertex="1">
          <mxGeometry x="1038" width="280" height="70" as="geometry">
            <mxRectangle width="280" height="70" as="alternateBounds" />
          </mxGeometry>
        </mxCell>
        <mxCell id="CQ1wmMg1kjNoGGf3bAGS-68" style="shape=tableRow;horizontal=0;startSize=0;swimlaneHead=0;swimlaneBody=0;strokeColor=inherit;top=0;left=0;bottom=0;right=0;collapsible=0;dropTarget=0;fillColor=none;points=[[0,0.5],[1,0.5]];portConstraint=eastwest;fontSize=16;" parent="02INJHvjmvBwod2YjTt--11" vertex="1">
          <mxGeometry y="660" width="1318" height="70" as="geometry" />
        </mxCell>
        <mxCell id="CQ1wmMg1kjNoGGf3bAGS-69" value="Mission Selector" style="shape=partialRectangle;html=1;whiteSpace=wrap;connectable=0;strokeColor=inherit;overflow=hidden;fillColor=none;top=0;left=0;bottom=0;right=0;pointerEvents=1;fontSize=16;" parent="CQ1wmMg1kjNoGGf3bAGS-68" vertex="1">
          <mxGeometry width="198" height="70" as="geometry">
            <mxRectangle width="198" height="70" as="alternateBounds" />
          </mxGeometry>
        </mxCell>
        <mxCell id="CQ1wmMg1kjNoGGf3bAGS-70" value="- Showcases Selected Mission&lt;br&gt;- Sends info on Selected Mission" style="shape=partialRectangle;html=1;whiteSpace=wrap;connectable=0;strokeColor=inherit;overflow=hidden;fillColor=none;top=0;left=0;bottom=0;right=0;pointerEvents=1;fontSize=16;" parent="CQ1wmMg1kjNoGGf3bAGS-68" vertex="1">
          <mxGeometry x="198" width="280" height="70" as="geometry">
            <mxRectangle width="280" height="70" as="alternateBounds" />
          </mxGeometry>
        </mxCell>
        <mxCell id="sZuSeQ67okOJ5UxKlKqD-15" value="AMI" style="shape=partialRectangle;html=1;whiteSpace=wrap;connectable=0;strokeColor=inherit;overflow=hidden;fillColor=none;top=0;left=0;bottom=0;right=0;pointerEvents=1;fontSize=16;" parent="CQ1wmMg1kjNoGGf3bAGS-68" vertex="1">
          <mxGeometry x="478" width="280" height="70" as="geometry">
            <mxRectangle width="280" height="70" as="alternateBounds" />
          </mxGeometry>
        </mxCell>
        <mxCell id="CQ1wmMg1kjNoGGf3bAGS-71" style="shape=partialRectangle;html=1;whiteSpace=wrap;connectable=0;strokeColor=inherit;overflow=hidden;fillColor=none;top=0;left=0;bottom=0;right=0;pointerEvents=1;fontSize=16;" parent="CQ1wmMg1kjNoGGf3bAGS-68" vertex="1">
          <mxGeometry x="758" width="280" height="70" as="geometry">
            <mxRectangle width="280" height="70" as="alternateBounds" />
          </mxGeometry>
        </mxCell>
        <mxCell id="CQ1wmMg1kjNoGGf3bAGS-72" value="No" style="shape=partialRectangle;html=1;whiteSpace=wrap;connectable=0;strokeColor=inherit;overflow=hidden;fillColor=none;top=0;left=0;bottom=0;right=0;pointerEvents=1;fontSize=16;" parent="CQ1wmMg1kjNoGGf3bAGS-68" vertex="1">
          <mxGeometry x="1038" width="280" height="70" as="geometry">
            <mxRectangle width="280" height="70" as="alternateBounds" />
          </mxGeometry>
        </mxCell>
        <mxCell id="sZuSeQ67okOJ5UxKlKqD-5" style="shape=tableRow;horizontal=0;startSize=0;swimlaneHead=0;swimlaneBody=0;strokeColor=inherit;top=0;left=0;bottom=0;right=0;collapsible=0;dropTarget=0;fillColor=none;points=[[0,0.5],[1,0.5]];portConstraint=eastwest;fontSize=16;" parent="02INJHvjmvBwod2YjTt--11" vertex="1">
          <mxGeometry y="730" width="1318" height="70" as="geometry" />
        </mxCell>
        <mxCell id="sZuSeQ67okOJ5UxKlKqD-6" value="Steering" style="shape=partialRectangle;html=1;whiteSpace=wrap;connectable=0;strokeColor=inherit;overflow=hidden;fillColor=none;top=0;left=0;bottom=0;right=0;pointerEvents=1;fontSize=16;" parent="sZuSeQ67okOJ5UxKlKqD-5" vertex="1">
          <mxGeometry width="198" height="70" as="geometry">
            <mxRectangle width="198" height="70" as="alternateBounds" />
          </mxGeometry>
        </mxCell>
        <mxCell id="sZuSeQ67okOJ5UxKlKqD-7" value="- Actuate Steering Command Given&lt;br&gt;- Output Steering Current Angle" style="shape=partialRectangle;html=1;whiteSpace=wrap;connectable=0;strokeColor=inherit;overflow=hidden;fillColor=none;top=0;left=0;bottom=0;right=0;pointerEvents=1;fontSize=16;" parent="sZuSeQ67okOJ5UxKlKqD-5" vertex="1">
          <mxGeometry x="198" width="280" height="70" as="geometry">
            <mxRectangle width="280" height="70" as="alternateBounds" />
          </mxGeometry>
        </mxCell>
        <mxCell id="sZuSeQ67okOJ5UxKlKqD-16" value="Steering PCB" style="shape=partialRectangle;html=1;whiteSpace=wrap;connectable=0;strokeColor=inherit;overflow=hidden;fillColor=none;top=0;left=0;bottom=0;right=0;pointerEvents=1;fontSize=16;" parent="sZuSeQ67okOJ5UxKlKqD-5" vertex="1">
          <mxGeometry x="478" width="280" height="70" as="geometry">
            <mxRectangle width="280" height="70" as="alternateBounds" />
          </mxGeometry>
        </mxCell>
        <mxCell id="sZuSeQ67okOJ5UxKlKqD-8" style="shape=partialRectangle;html=1;whiteSpace=wrap;connectable=0;strokeColor=inherit;overflow=hidden;fillColor=none;top=0;left=0;bottom=0;right=0;pointerEvents=1;fontSize=16;" parent="sZuSeQ67okOJ5UxKlKqD-5" vertex="1">
          <mxGeometry x="758" width="280" height="70" as="geometry">
            <mxRectangle width="280" height="70" as="alternateBounds" />
          </mxGeometry>
        </mxCell>
        <mxCell id="sZuSeQ67okOJ5UxKlKqD-9" value="?" style="shape=partialRectangle;html=1;whiteSpace=wrap;connectable=0;strokeColor=inherit;overflow=hidden;fillColor=none;top=0;left=0;bottom=0;right=0;pointerEvents=1;fontSize=16;" parent="sZuSeQ67okOJ5UxKlKqD-5" vertex="1">
          <mxGeometry x="1038" width="280" height="70" as="geometry">
            <mxRectangle width="280" height="70" as="alternateBounds" />
          </mxGeometry>
        </mxCell>
        <mxCell id="sZuSeQ67okOJ5UxKlKqD-23" style="shape=tableRow;horizontal=0;startSize=0;swimlaneHead=0;swimlaneBody=0;strokeColor=inherit;top=0;left=0;bottom=0;right=0;collapsible=0;dropTarget=0;fillColor=none;points=[[0,0.5],[1,0.5]];portConstraint=eastwest;fontSize=16;" parent="02INJHvjmvBwod2YjTt--11" vertex="1">
          <mxGeometry y="800" width="1318" height="70" as="geometry" />
        </mxCell>
        <mxCell id="sZuSeQ67okOJ5UxKlKqD-24" value="Sensor Translator 2" style="shape=partialRectangle;html=1;whiteSpace=wrap;connectable=0;strokeColor=inherit;overflow=hidden;fillColor=none;top=0;left=0;bottom=0;right=0;pointerEvents=1;fontSize=16;" parent="sZuSeQ67okOJ5UxKlKqD-23" vertex="1">
          <mxGeometry width="198" height="70" as="geometry">
            <mxRectangle width="198" height="70" as="alternateBounds" />
          </mxGeometry>
        </mxCell>
        <mxCell id="sZuSeQ67okOJ5UxKlKqD-25" value="- Translate Hydraulic Pressure Sensor and Wheel Encoder inputs into CAN" style="shape=partialRectangle;html=1;whiteSpace=wrap;connectable=0;strokeColor=inherit;overflow=hidden;fillColor=none;top=0;left=0;bottom=0;right=0;pointerEvents=1;fontSize=16;" parent="sZuSeQ67okOJ5UxKlKqD-23" vertex="1">
          <mxGeometry x="198" width="280" height="70" as="geometry">
            <mxRectangle width="280" height="70" as="alternateBounds" />
          </mxGeometry>
        </mxCell>
        <mxCell id="sZuSeQ67okOJ5UxKlKqD-26" value="Caixa 1 PCB" style="shape=partialRectangle;html=1;whiteSpace=wrap;connectable=0;strokeColor=inherit;overflow=hidden;fillColor=none;top=0;left=0;bottom=0;right=0;pointerEvents=1;fontSize=16;" parent="sZuSeQ67okOJ5UxKlKqD-23" vertex="1">
          <mxGeometry x="478" width="280" height="70" as="geometry">
            <mxRectangle width="280" height="70" as="alternateBounds" />
          </mxGeometry>
        </mxCell>
        <mxCell id="sZuSeQ67okOJ5UxKlKqD-27" style="shape=partialRectangle;html=1;whiteSpace=wrap;connectable=0;strokeColor=inherit;overflow=hidden;fillColor=none;top=0;left=0;bottom=0;right=0;pointerEvents=1;fontSize=16;" parent="sZuSeQ67okOJ5UxKlKqD-23" vertex="1">
          <mxGeometry x="758" width="280" height="70" as="geometry">
            <mxRectangle width="280" height="70" as="alternateBounds" />
          </mxGeometry>
        </mxCell>
        <mxCell id="sZuSeQ67okOJ5UxKlKqD-28" value="Yes" style="shape=partialRectangle;html=1;whiteSpace=wrap;connectable=0;strokeColor=inherit;overflow=hidden;fillColor=none;top=0;left=0;bottom=0;right=0;pointerEvents=1;fontSize=16;" parent="sZuSeQ67okOJ5UxKlKqD-23" vertex="1">
          <mxGeometry x="1038" width="280" height="70" as="geometry">
            <mxRectangle width="280" height="70" as="alternateBounds" />
          </mxGeometry>
        </mxCell>
        <mxCell id="sZuSeQ67okOJ5UxKlKqD-17" style="shape=tableRow;horizontal=0;startSize=0;swimlaneHead=0;swimlaneBody=0;strokeColor=inherit;top=0;left=0;bottom=0;right=0;collapsible=0;dropTarget=0;fillColor=none;points=[[0,0.5],[1,0.5]];portConstraint=eastwest;fontSize=16;" parent="02INJHvjmvBwod2YjTt--11" vertex="1">
          <mxGeometry y="870" width="1318" height="70" as="geometry" />
        </mxCell>
        <mxCell id="sZuSeQ67okOJ5UxKlKqD-18" value="RES Receiver" style="shape=partialRectangle;html=1;whiteSpace=wrap;connectable=0;strokeColor=inherit;overflow=hidden;fillColor=none;top=0;left=0;bottom=0;right=0;pointerEvents=1;fontSize=16;" parent="sZuSeQ67okOJ5UxKlKqD-17" vertex="1">
          <mxGeometry width="198" height="70" as="geometry">
            <mxRectangle width="198" height="70" as="alternateBounds" />
          </mxGeometry>
        </mxCell>
        <mxCell id="sZuSeQ67okOJ5UxKlKqD-19" value="- Receive RES Signals and send Go and Emergency signals" style="shape=partialRectangle;html=1;whiteSpace=wrap;connectable=0;strokeColor=inherit;overflow=hidden;fillColor=none;top=0;left=0;bottom=0;right=0;pointerEvents=1;fontSize=16;" parent="sZuSeQ67okOJ5UxKlKqD-17" vertex="1">
          <mxGeometry x="198" width="280" height="70" as="geometry">
            <mxRectangle width="280" height="70" as="alternateBounds" />
          </mxGeometry>
        </mxCell>
        <mxCell id="sZuSeQ67okOJ5UxKlKqD-20" value="RES PCB" style="shape=partialRectangle;html=1;whiteSpace=wrap;connectable=0;strokeColor=inherit;overflow=hidden;fillColor=none;top=0;left=0;bottom=0;right=0;pointerEvents=1;fontSize=16;" parent="sZuSeQ67okOJ5UxKlKqD-17" vertex="1">
          <mxGeometry x="478" width="280" height="70" as="geometry">
            <mxRectangle width="280" height="70" as="alternateBounds" />
          </mxGeometry>
        </mxCell>
        <mxCell id="sZuSeQ67okOJ5UxKlKqD-21" style="shape=partialRectangle;html=1;whiteSpace=wrap;connectable=0;strokeColor=inherit;overflow=hidden;fillColor=none;top=0;left=0;bottom=0;right=0;pointerEvents=1;fontSize=16;" parent="sZuSeQ67okOJ5UxKlKqD-17" vertex="1">
          <mxGeometry x="758" width="280" height="70" as="geometry">
            <mxRectangle width="280" height="70" as="alternateBounds" />
          </mxGeometry>
        </mxCell>
        <mxCell id="sZuSeQ67okOJ5UxKlKqD-22" value="?" style="shape=partialRectangle;html=1;whiteSpace=wrap;connectable=0;strokeColor=inherit;overflow=hidden;fillColor=none;top=0;left=0;bottom=0;right=0;pointerEvents=1;fontSize=16;" parent="sZuSeQ67okOJ5UxKlKqD-17" vertex="1">
          <mxGeometry x="1038" width="280" height="70" as="geometry">
            <mxRectangle width="280" height="70" as="alternateBounds" />
          </mxGeometry>
        </mxCell>
        <mxCell id="sZuSeQ67okOJ5UxKlKqD-210" style="shape=tableRow;horizontal=0;startSize=0;swimlaneHead=0;swimlaneBody=0;strokeColor=inherit;top=0;left=0;bottom=0;right=0;collapsible=0;dropTarget=0;fillColor=none;points=[[0,0.5],[1,0.5]];portConstraint=eastwest;fontSize=16;" parent="02INJHvjmvBwod2YjTt--11" vertex="1">
          <mxGeometry y="940" width="1318" height="70" as="geometry" />
        </mxCell>
        <mxCell id="sZuSeQ67okOJ5UxKlKqD-211" value="Inversor" style="shape=partialRectangle;html=1;whiteSpace=wrap;connectable=0;strokeColor=inherit;overflow=hidden;fillColor=none;top=0;left=0;bottom=0;right=0;pointerEvents=1;fontSize=16;" parent="sZuSeQ67okOJ5UxKlKqD-210" vertex="1">
          <mxGeometry width="198" height="70" as="geometry">
            <mxRectangle width="198" height="70" as="alternateBounds" />
          </mxGeometry>
        </mxCell>
        <mxCell id="sZuSeQ67okOJ5UxKlKqD-212" value="- Actuates Throttle command" style="shape=partialRectangle;html=1;whiteSpace=wrap;connectable=0;strokeColor=inherit;overflow=hidden;fillColor=none;top=0;left=0;bottom=0;right=0;pointerEvents=1;fontSize=16;" parent="sZuSeQ67okOJ5UxKlKqD-210" vertex="1">
          <mxGeometry x="198" width="280" height="70" as="geometry">
            <mxRectangle width="280" height="70" as="alternateBounds" />
          </mxGeometry>
        </mxCell>
        <mxCell id="sZuSeQ67okOJ5UxKlKqD-213" value="Inversor" style="shape=partialRectangle;html=1;whiteSpace=wrap;connectable=0;strokeColor=inherit;overflow=hidden;fillColor=none;top=0;left=0;bottom=0;right=0;pointerEvents=1;fontSize=16;" parent="sZuSeQ67okOJ5UxKlKqD-210" vertex="1">
          <mxGeometry x="478" width="280" height="70" as="geometry">
            <mxRectangle width="280" height="70" as="alternateBounds" />
          </mxGeometry>
        </mxCell>
        <mxCell id="sZuSeQ67okOJ5UxKlKqD-214" style="shape=partialRectangle;html=1;whiteSpace=wrap;connectable=0;strokeColor=inherit;overflow=hidden;fillColor=none;top=0;left=0;bottom=0;right=0;pointerEvents=1;fontSize=16;" parent="sZuSeQ67okOJ5UxKlKqD-210" vertex="1">
          <mxGeometry x="758" width="280" height="70" as="geometry">
            <mxRectangle width="280" height="70" as="alternateBounds" />
          </mxGeometry>
        </mxCell>
        <mxCell id="sZuSeQ67okOJ5UxKlKqD-215" value="Yes" style="shape=partialRectangle;html=1;whiteSpace=wrap;connectable=0;strokeColor=inherit;overflow=hidden;fillColor=none;top=0;left=0;bottom=0;right=0;pointerEvents=1;fontSize=16;" parent="sZuSeQ67okOJ5UxKlKqD-210" vertex="1">
          <mxGeometry x="1038" width="280" height="70" as="geometry">
            <mxRectangle width="280" height="70" as="alternateBounds" />
          </mxGeometry>
        </mxCell>
        <mxCell id="sZuSeQ67okOJ5UxKlKqD-216" style="shape=tableRow;horizontal=0;startSize=0;swimlaneHead=0;swimlaneBody=0;strokeColor=inherit;top=0;left=0;bottom=0;right=0;collapsible=0;dropTarget=0;fillColor=none;points=[[0,0.5],[1,0.5]];portConstraint=eastwest;fontSize=16;" parent="02INJHvjmvBwod2YjTt--11" vertex="1">
          <mxGeometry y="1010" width="1318" height="70" as="geometry" />
        </mxCell>
        <mxCell id="sZuSeQ67okOJ5UxKlKqD-217" value="Buzzer" style="shape=partialRectangle;html=1;whiteSpace=wrap;connectable=0;strokeColor=inherit;overflow=hidden;fillColor=none;top=0;left=0;bottom=0;right=0;pointerEvents=1;fontSize=16;" parent="sZuSeQ67okOJ5UxKlKqD-216" vertex="1">
          <mxGeometry width="198" height="70" as="geometry">
            <mxRectangle width="198" height="70" as="alternateBounds" />
          </mxGeometry>
        </mxCell>
        <mxCell id="sZuSeQ67okOJ5UxKlKqD-218" value="- Buzzes when RES activated" style="shape=partialRectangle;html=1;whiteSpace=wrap;connectable=0;strokeColor=inherit;overflow=hidden;fillColor=none;top=0;left=0;bottom=0;right=0;pointerEvents=1;fontSize=16;" parent="sZuSeQ67okOJ5UxKlKqD-216" vertex="1">
          <mxGeometry x="198" width="280" height="70" as="geometry">
            <mxRectangle width="280" height="70" as="alternateBounds" />
          </mxGeometry>
        </mxCell>
        <mxCell id="sZuSeQ67okOJ5UxKlKqD-219" value="Caixa 3 PCB" style="shape=partialRectangle;html=1;whiteSpace=wrap;connectable=0;strokeColor=inherit;overflow=hidden;fillColor=none;top=0;left=0;bottom=0;right=0;pointerEvents=1;fontSize=16;" parent="sZuSeQ67okOJ5UxKlKqD-216" vertex="1">
          <mxGeometry x="478" width="280" height="70" as="geometry">
            <mxRectangle width="280" height="70" as="alternateBounds" />
          </mxGeometry>
        </mxCell>
        <mxCell id="sZuSeQ67okOJ5UxKlKqD-220" style="shape=partialRectangle;html=1;whiteSpace=wrap;connectable=0;strokeColor=inherit;overflow=hidden;fillColor=none;top=0;left=0;bottom=0;right=0;pointerEvents=1;fontSize=16;" parent="sZuSeQ67okOJ5UxKlKqD-216" vertex="1">
          <mxGeometry x="758" width="280" height="70" as="geometry">
            <mxRectangle width="280" height="70" as="alternateBounds" />
          </mxGeometry>
        </mxCell>
        <mxCell id="sZuSeQ67okOJ5UxKlKqD-221" value="Yes" style="shape=partialRectangle;html=1;whiteSpace=wrap;connectable=0;strokeColor=inherit;overflow=hidden;fillColor=none;top=0;left=0;bottom=0;right=0;pointerEvents=1;fontSize=16;" parent="sZuSeQ67okOJ5UxKlKqD-216" vertex="1">
          <mxGeometry x="1038" width="280" height="70" as="geometry">
            <mxRectangle width="280" height="70" as="alternateBounds" />
          </mxGeometry>
        </mxCell>
        <mxCell id="aNWwgpqA71NvFxte948c-3" value="" style="endArrow=classic;html=1;rounded=0;strokeWidth=3;fillColor=#e1d5e7;strokeColor=#9673a6;startArrow=classic;startFill=1;shape=link;entryX=0.983;entryY=1;entryDx=0;entryDy=0;entryPerimeter=0;exitX=1;exitY=0.25;exitDx=0;exitDy=0;" parent="1" source="CrHd_MsES68OAFLLBE-K-4" target="aZmOVXOk3B2EYtA5Geev-9" edge="1">
          <mxGeometry relative="1" as="geometry">
            <mxPoint x="830" y="592" as="sourcePoint" />
            <mxPoint x="962" y="591" as="targetPoint" />
          </mxGeometry>
        </mxCell>
        <mxCell id="aNWwgpqA71NvFxte948c-4" value="" style="shape=message;html=1;outlineConnect=0;" parent="aNWwgpqA71NvFxte948c-3" vertex="1">
          <mxGeometry width="20" height="14" relative="1" as="geometry">
            <mxPoint x="-10" y="-7" as="offset" />
          </mxGeometry>
        </mxCell>
        <mxCell id="aNWwgpqA71NvFxte948c-48" value="" style="endArrow=none;html=1;rounded=0;strokeWidth=3;entryX=0.778;entryY=1.02;entryDx=0;entryDy=0;startArrow=classic;startFill=1;endFill=0;exitX=0;exitY=0;exitDx=0;exitDy=0;exitPerimeter=0;entryPerimeter=0;" parent="1" source="aZmOVXOk3B2EYtA5Geev-18" target="l7KghhQer-1Jxl8H2hNQ-98" edge="1">
          <mxGeometry relative="1" as="geometry">
            <mxPoint x="1249" y="298" as="sourcePoint" />
            <mxPoint x="1257" y="210" as="targetPoint" />
            <Array as="points">
              <mxPoint x="1300" y="230" />
            </Array>
          </mxGeometry>
        </mxCell>
        <mxCell id="aNWwgpqA71NvFxte948c-49" value="" style="shape=message;html=1;outlineConnect=0;" parent="aNWwgpqA71NvFxte948c-48" vertex="1">
          <mxGeometry width="20" height="14" relative="1" as="geometry">
            <mxPoint x="-10" y="-7" as="offset" />
          </mxGeometry>
        </mxCell>
        <mxCell id="sZuSeQ67okOJ5UxKlKqD-29" value="" style="rounded=0;whiteSpace=wrap;html=1;" parent="1" vertex="1">
          <mxGeometry x="1340" y="100" width="120" height="140" as="geometry" />
        </mxCell>
        <mxCell id="sZuSeQ67okOJ5UxKlKqD-30" value="&lt;span style=&quot;font-size: 15px;&quot;&gt;&lt;b&gt;&lt;font style=&quot;vertical-align: inherit;&quot;&gt;&lt;font style=&quot;vertical-align: inherit;&quot;&gt;&lt;font style=&quot;vertical-align: inherit;&quot;&gt;&lt;font style=&quot;vertical-align: inherit;&quot;&gt;&lt;font style=&quot;vertical-align: inherit;&quot;&gt;&lt;font style=&quot;vertical-align: inherit;&quot;&gt;Program Type:&lt;br&gt;&lt;/font&gt;&lt;/font&gt;&lt;/font&gt;&lt;/font&gt;&lt;/font&gt;&lt;/font&gt;&lt;/b&gt;&lt;/span&gt;" style="text;html=1;strokeColor=none;fillColor=none;align=center;verticalAlign=middle;whiteSpace=wrap;rounded=0;" parent="1" vertex="1">
          <mxGeometry x="1345" y="110" width="110" height="30" as="geometry" />
        </mxCell>
        <mxCell id="sZuSeQ67okOJ5UxKlKqD-31" value="" style="endArrow=none;html=1;rounded=0;strokeWidth=2;endFill=0;strokeColor=#EA6B66;" parent="1" edge="1">
          <mxGeometry relative="1" as="geometry">
            <mxPoint x="1345" y="160" as="sourcePoint" />
            <mxPoint x="1360" y="160" as="targetPoint" />
          </mxGeometry>
        </mxCell>
        <mxCell id="sZuSeQ67okOJ5UxKlKqD-32" value="" style="endArrow=none;html=1;rounded=0;strokeWidth=2;fillColor=#fff2cc;strokeColor=#3399FF;endFill=0;" parent="1" edge="1">
          <mxGeometry relative="1" as="geometry">
            <mxPoint x="1345" y="190" as="sourcePoint" />
            <mxPoint x="1360" y="190" as="targetPoint" />
          </mxGeometry>
        </mxCell>
        <mxCell id="sZuSeQ67okOJ5UxKlKqD-33" value="&lt;span style=&quot;font-size: 15px;&quot;&gt;&lt;font color=&quot;#ea6b66&quot;&gt;Hardware&lt;/font&gt;&lt;/span&gt;" style="text;html=1;strokeColor=none;fillColor=none;align=center;verticalAlign=middle;whiteSpace=wrap;rounded=0;" parent="1" vertex="1">
          <mxGeometry x="1365" y="150" width="80" height="20" as="geometry" />
        </mxCell>
        <mxCell id="sZuSeQ67okOJ5UxKlKqD-34" value="&lt;span style=&quot;font-size: 15px;&quot;&gt;&lt;font style=&quot;vertical-align: inherit;&quot;&gt;&lt;font color=&quot;#3399ff&quot; style=&quot;vertical-align: inherit;&quot;&gt;Software&lt;/font&gt;&lt;/font&gt;&lt;/span&gt;" style="text;html=1;strokeColor=none;fillColor=none;align=center;verticalAlign=middle;whiteSpace=wrap;rounded=0;" parent="1" vertex="1">
          <mxGeometry x="1365" y="180" width="80" height="20" as="geometry" />
        </mxCell>
        <mxCell id="sZuSeQ67okOJ5UxKlKqD-49" value="" style="endArrow=none;html=1;rounded=0;strokeWidth=2;fillColor=#fff2cc;strokeColor=#000000;endFill=0;" parent="1" edge="1">
          <mxGeometry relative="1" as="geometry">
            <mxPoint x="1345" y="220" as="sourcePoint" />
            <mxPoint x="1360" y="220" as="targetPoint" />
          </mxGeometry>
        </mxCell>
        <mxCell id="sZuSeQ67okOJ5UxKlKqD-50" value="&lt;span style=&quot;font-size: 15px;&quot;&gt;&lt;font style=&quot;vertical-align: inherit;&quot;&gt;&lt;font style=&quot;vertical-align: inherit;&quot;&gt;Not ours&lt;/font&gt;&lt;/font&gt;&lt;/span&gt;" style="text;html=1;strokeColor=none;fillColor=none;align=center;verticalAlign=middle;whiteSpace=wrap;rounded=0;" parent="1" vertex="1">
          <mxGeometry x="1365" y="210" width="80" height="20" as="geometry" />
        </mxCell>
        <mxCell id="sZuSeQ67okOJ5UxKlKqD-54" value="&lt;b&gt;Caixa 3&lt;/b&gt;" style="shape=umlFrame;whiteSpace=wrap;html=1;pointerEvents=0;recursiveResize=0;container=1;collapsible=0;width=160;" parent="1" vertex="1">
          <mxGeometry x="872" y="248" width="180" height="210" as="geometry" />
        </mxCell>
        <mxCell id="sZuSeQ67okOJ5UxKlKqD-55" value="&lt;b&gt;Teensy C3 PCB&lt;/b&gt;" style="verticalAlign=top;align=left;spacingTop=8;spacingLeft=2;spacingRight=12;shape=cube;size=10;direction=south;fontStyle=4;html=1;whiteSpace=wrap;" parent="sZuSeQ67okOJ5UxKlKqD-54" vertex="1">
          <mxGeometry x="5" y="40" width="170" height="160" as="geometry" />
        </mxCell>
        <mxCell id="sZuSeQ67okOJ5UxKlKqD-56" value="" style="fontStyle=1;align=center;verticalAlign=top;childLayout=stackLayout;horizontal=1;horizontalStack=0;resizeParent=1;resizeParentMax=0;resizeLast=0;marginBottom=0;" parent="sZuSeQ67okOJ5UxKlKqD-54" vertex="1">
          <mxGeometry x="15" y="80" width="140" height="106" as="geometry" />
        </mxCell>
        <mxCell id="sZuSeQ67okOJ5UxKlKqD-57" value="&lt;b&gt;Teensy C3&lt;/b&gt;" style="html=1;align=left;spacingLeft=4;verticalAlign=top;strokeColor=none;fillColor=none;whiteSpace=wrap;" parent="sZuSeQ67okOJ5UxKlKqD-56" vertex="1">
          <mxGeometry width="140" height="40" as="geometry" />
        </mxCell>
        <mxCell id="sZuSeQ67okOJ5UxKlKqD-58" value="" style="shape=module;jettyWidth=10;jettyHeight=4;strokeColor=#3399FF;" parent="sZuSeQ67okOJ5UxKlKqD-57" vertex="1">
          <mxGeometry x="1" width="16" height="20" relative="1" as="geometry">
            <mxPoint x="-25" y="9" as="offset" />
          </mxGeometry>
        </mxCell>
        <mxCell id="sZuSeQ67okOJ5UxKlKqD-59" value="" style="line;strokeWidth=1;fillColor=none;align=left;verticalAlign=middle;spacingTop=-1;spacingLeft=3;spacingRight=3;rotatable=0;labelPosition=right;points=[];portConstraint=eastwest;" parent="sZuSeQ67okOJ5UxKlKqD-56" vertex="1">
          <mxGeometry y="40" width="140" height="8" as="geometry" />
        </mxCell>
        <mxCell id="sZuSeQ67okOJ5UxKlKqD-60" value="required interfaces" style="html=1;align=center;spacingLeft=4;verticalAlign=top;strokeColor=none;fillColor=none;whiteSpace=wrap;fontStyle=1" parent="sZuSeQ67okOJ5UxKlKqD-56" vertex="1">
          <mxGeometry y="48" width="140" height="25" as="geometry" />
        </mxCell>
        <mxCell id="sZuSeQ67okOJ5UxKlKqD-61" value="&lt;font color=&quot;#9673a6&quot;&gt;ASStatus&lt;/font&gt;" style="html=1;align=left;spacingLeft=4;verticalAlign=top;strokeColor=none;fillColor=none;whiteSpace=wrap;" parent="sZuSeQ67okOJ5UxKlKqD-56" vertex="1">
          <mxGeometry y="73" width="140" height="25" as="geometry" />
        </mxCell>
        <mxCell id="sZuSeQ67okOJ5UxKlKqD-63" value="" style="line;strokeWidth=1;fillColor=none;align=left;verticalAlign=middle;spacingTop=-1;spacingLeft=3;spacingRight=3;rotatable=0;labelPosition=right;points=[];portConstraint=eastwest;" parent="sZuSeQ67okOJ5UxKlKqD-56" vertex="1">
          <mxGeometry y="98" width="140" height="8" as="geometry" />
        </mxCell>
        <mxCell id="sZuSeQ67okOJ5UxKlKqD-64" value="3-Axis IMU" style="rounded=0;whiteSpace=wrap;html=1;fontSize=13;" parent="1" vertex="1">
          <mxGeometry x="1040" y="120.00000000000023" width="90" height="50" as="geometry" />
        </mxCell>
        <mxCell id="sZuSeQ67okOJ5UxKlKqD-72" value="" style="endArrow=none;html=1;rounded=0;strokeWidth=3;fillColor=#e1d5e7;strokeColor=#9673a6;endFill=0;startArrow=classic;startFill=1;entryX=0.177;entryY=-0.015;entryDx=0;entryDy=0;exitX=0;exitY=0;exitDx=160;exitDy=90;exitPerimeter=0;entryPerimeter=0;" parent="1" source="sZuSeQ67okOJ5UxKlKqD-55" target="CrHd_MsES68OAFLLBE-K-4" edge="1">
          <mxGeometry relative="1" as="geometry">
            <mxPoint x="910.004" y="713.7799999999999" as="sourcePoint" />
            <mxPoint x="910.58" y="340.0000000000002" as="targetPoint" />
            <Array as="points" />
          </mxGeometry>
        </mxCell>
        <mxCell id="sZuSeQ67okOJ5UxKlKqD-73" value="" style="shape=message;html=1;outlineConnect=0;" parent="sZuSeQ67okOJ5UxKlKqD-72" vertex="1">
          <mxGeometry width="20" height="14" relative="1" as="geometry">
            <mxPoint x="-9" y="2" as="offset" />
          </mxGeometry>
        </mxCell>
        <mxCell id="sZuSeQ67okOJ5UxKlKqD-190" value="" style="endArrow=none;html=1;rounded=0;strokeWidth=3;fillColor=#e1d5e7;strokeColor=#9673a6;endFill=0;startArrow=classic;startFill=1;exitX=0.433;exitY=0.971;exitDx=0;exitDy=0;exitPerimeter=0;" parent="1" source="CrHd_MsES68OAFLLBE-K-4" target="aZmOVXOk3B2EYtA5Geev-155" edge="1">
          <mxGeometry relative="1" as="geometry">
            <mxPoint x="1013" y="923" as="sourcePoint" />
            <mxPoint x="1117" y="640" as="targetPoint" />
            <Array as="points" />
          </mxGeometry>
        </mxCell>
        <mxCell id="sZuSeQ67okOJ5UxKlKqD-191" value="" style="shape=message;html=1;outlineConnect=0;" parent="sZuSeQ67okOJ5UxKlKqD-190" vertex="1">
          <mxGeometry width="20" height="14" relative="1" as="geometry">
            <mxPoint x="-10" y="-7" as="offset" />
          </mxGeometry>
        </mxCell>
        <mxCell id="sZuSeQ67okOJ5UxKlKqD-192" value="&lt;b&gt;Inversor Surroundings&lt;/b&gt;" style="shape=umlFrame;whiteSpace=wrap;html=1;pointerEvents=0;recursiveResize=0;container=1;collapsible=0;width=160;" parent="1" vertex="1">
          <mxGeometry x="850" y="630" width="410" height="410" as="geometry" />
        </mxCell>
        <mxCell id="aZmOVXOk3B2EYtA5Geev-155" value="&lt;div style=&quot;text-align: center;&quot;&gt;&lt;span style=&quot;background-color: initial;&quot;&gt;&lt;b&gt;RES&lt;/b&gt;&lt;/span&gt;&lt;/div&gt;" style="verticalAlign=top;align=left;spacingTop=8;spacingLeft=2;spacingRight=12;shape=cube;size=10;direction=south;fontStyle=4;html=1;whiteSpace=wrap;" parent="sZuSeQ67okOJ5UxKlKqD-192" vertex="1">
          <mxGeometry x="180" y="110" width="213" height="265.5" as="geometry" />
        </mxCell>
        <mxCell id="aZmOVXOk3B2EYtA5Geev-147" value="" style="fontStyle=1;align=center;verticalAlign=top;childLayout=stackLayout;horizontal=1;horizontalStack=0;resizeParent=1;resizeParentMax=0;resizeLast=0;marginBottom=0;" parent="sZuSeQ67okOJ5UxKlKqD-192" vertex="1">
          <mxGeometry x="196.5" y="150" width="180" height="208" as="geometry" />
        </mxCell>
        <mxCell id="aZmOVXOk3B2EYtA5Geev-148" value="&lt;b style=&quot;border-color: var(--border-color); text-align: center;&quot;&gt;RES receiver&lt;/b&gt;" style="html=1;align=left;spacingLeft=4;verticalAlign=top;strokeColor=none;fillColor=none;whiteSpace=wrap;" parent="aZmOVXOk3B2EYtA5Geev-147" vertex="1">
          <mxGeometry width="180" height="40" as="geometry" />
        </mxCell>
        <mxCell id="aZmOVXOk3B2EYtA5Geev-149" value="" style="shape=module;jettyWidth=10;jettyHeight=4;" parent="aZmOVXOk3B2EYtA5Geev-148" vertex="1">
          <mxGeometry x="1" width="16" height="20" relative="1" as="geometry">
            <mxPoint x="-25" y="9" as="offset" />
          </mxGeometry>
        </mxCell>
        <mxCell id="aZmOVXOk3B2EYtA5Geev-150" value="" style="line;strokeWidth=1;fillColor=none;align=left;verticalAlign=middle;spacingTop=-1;spacingLeft=3;spacingRight=3;rotatable=0;labelPosition=right;points=[];portConstraint=eastwest;" parent="aZmOVXOk3B2EYtA5Geev-147" vertex="1">
          <mxGeometry y="40" width="180" height="8" as="geometry" />
        </mxCell>
        <mxCell id="aZmOVXOk3B2EYtA5Geev-151" value="provided interfaces" style="html=1;align=center;spacingLeft=4;verticalAlign=top;strokeColor=none;fillColor=none;whiteSpace=wrap;fontStyle=1" parent="aZmOVXOk3B2EYtA5Geev-147" vertex="1">
          <mxGeometry y="48" width="180" height="25" as="geometry" />
        </mxCell>
        <mxCell id="aZmOVXOk3B2EYtA5Geev-152" value="&lt;font color=&quot;#9673a6&quot;&gt;&lt;b style=&quot;border-color: var(--border-color);&quot;&gt;Stop Button:&lt;/b&gt;&amp;nbsp;Emergency&lt;/font&gt;" style="html=1;align=left;spacingLeft=4;verticalAlign=top;strokeColor=none;fillColor=none;whiteSpace=wrap;" parent="aZmOVXOk3B2EYtA5Geev-147" vertex="1">
          <mxGeometry y="73" width="180" height="27" as="geometry" />
        </mxCell>
        <mxCell id="aZmOVXOk3B2EYtA5Geev-153" value="&lt;font color=&quot;#9673a6&quot;&gt;&lt;b style=&quot;border-color: var(--border-color);&quot;&gt;Control Signal:&lt;/b&gt;&amp;nbsp;GO Signal&lt;/font&gt;" style="html=1;align=left;spacingLeft=4;verticalAlign=top;strokeColor=none;fillColor=none;whiteSpace=wrap;" parent="aZmOVXOk3B2EYtA5Geev-147" vertex="1">
          <mxGeometry y="100" width="180" height="25" as="geometry" />
        </mxCell>
        <mxCell id="GeWjYYyK9IcbD7qX6hDq-35" value="&lt;font color=&quot;#9673a6&quot;&gt;&lt;b&gt;RES Initial Message&lt;/b&gt;&lt;/font&gt;" style="html=1;align=left;spacingLeft=4;verticalAlign=top;strokeColor=none;fillColor=none;whiteSpace=wrap;" vertex="1" parent="aZmOVXOk3B2EYtA5Geev-147">
          <mxGeometry y="125" width="180" height="25" as="geometry" />
        </mxCell>
        <mxCell id="aZmOVXOk3B2EYtA5Geev-154" value="" style="line;strokeWidth=1;fillColor=none;align=left;verticalAlign=middle;spacingTop=-1;spacingLeft=3;spacingRight=3;rotatable=0;labelPosition=right;points=[];portConstraint=eastwest;" parent="aZmOVXOk3B2EYtA5Geev-147" vertex="1">
          <mxGeometry y="150" width="180" height="8" as="geometry" />
        </mxCell>
        <mxCell id="GeWjYYyK9IcbD7qX6hDq-23" value="required interfaces" style="html=1;align=center;spacingLeft=4;verticalAlign=top;strokeColor=none;fillColor=none;whiteSpace=wrap;fontStyle=1" vertex="1" parent="aZmOVXOk3B2EYtA5Geev-147">
          <mxGeometry y="158" width="180" height="25" as="geometry" />
        </mxCell>
        <mxCell id="GeWjYYyK9IcbD7qX6hDq-34" value="&lt;font color=&quot;#9673a6&quot;&gt;&lt;b&gt;RES Setup Message&lt;/b&gt;&lt;/font&gt;" style="html=1;align=left;spacingLeft=4;verticalAlign=top;strokeColor=none;fillColor=none;whiteSpace=wrap;" vertex="1" parent="aZmOVXOk3B2EYtA5Geev-147">
          <mxGeometry y="183" width="180" height="25" as="geometry" />
        </mxCell>
        <mxCell id="YzPvoAI_dSwJ99V7AxGa-1" value="&lt;div style=&quot;text-align: center;&quot;&gt;&lt;span style=&quot;background-color: initial;&quot;&gt;&lt;b&gt;Inversor&lt;/b&gt;&lt;/span&gt;&lt;/div&gt;" style="verticalAlign=top;align=left;spacingTop=8;spacingLeft=2;spacingRight=12;shape=cube;size=10;direction=south;fontStyle=4;html=1;whiteSpace=wrap;" parent="sZuSeQ67okOJ5UxKlKqD-192" vertex="1">
          <mxGeometry x="15" y="169.37" width="150" height="212.25" as="geometry" />
        </mxCell>
        <mxCell id="YzPvoAI_dSwJ99V7AxGa-45" value="" style="fontStyle=1;align=center;verticalAlign=top;childLayout=stackLayout;horizontal=1;horizontalStack=0;resizeParent=1;resizeParentMax=0;resizeLast=0;marginBottom=0;" parent="sZuSeQ67okOJ5UxKlKqD-192" vertex="1">
          <mxGeometry x="20" y="200.62" width="125" height="181" as="geometry" />
        </mxCell>
        <mxCell id="YzPvoAI_dSwJ99V7AxGa-46" value="&lt;b&gt;Inversor&lt;/b&gt;" style="html=1;align=left;spacingLeft=4;verticalAlign=top;strokeColor=none;fillColor=none;whiteSpace=wrap;" parent="YzPvoAI_dSwJ99V7AxGa-45" vertex="1">
          <mxGeometry width="125" height="40" as="geometry" />
        </mxCell>
        <mxCell id="YzPvoAI_dSwJ99V7AxGa-47" value="" style="shape=module;jettyWidth=10;jettyHeight=4;strokeColor=#3399FF;" parent="YzPvoAI_dSwJ99V7AxGa-46" vertex="1">
          <mxGeometry x="1" width="16" height="20" relative="1" as="geometry">
            <mxPoint x="-25" y="9" as="offset" />
          </mxGeometry>
        </mxCell>
        <mxCell id="YzPvoAI_dSwJ99V7AxGa-48" value="" style="line;strokeWidth=1;fillColor=none;align=left;verticalAlign=middle;spacingTop=-1;spacingLeft=3;spacingRight=3;rotatable=0;labelPosition=right;points=[];portConstraint=eastwest;" parent="YzPvoAI_dSwJ99V7AxGa-45" vertex="1">
          <mxGeometry y="40" width="125" height="8" as="geometry" />
        </mxCell>
        <mxCell id="NGaI6VRKh7LVpuEDAku1-4" value="provided interfaces" style="html=1;align=center;spacingLeft=4;verticalAlign=top;strokeColor=none;fillColor=none;whiteSpace=wrap;fontStyle=1" parent="YzPvoAI_dSwJ99V7AxGa-45" vertex="1">
          <mxGeometry y="48" width="125" height="25" as="geometry" />
        </mxCell>
        <mxCell id="NGaI6VRKh7LVpuEDAku1-6" value="&lt;font color=&quot;#9673a6&quot;&gt;TS State&lt;/font&gt;" style="html=1;align=left;spacingLeft=4;verticalAlign=top;strokeColor=none;fillColor=none;whiteSpace=wrap;" parent="YzPvoAI_dSwJ99V7AxGa-45" vertex="1">
          <mxGeometry y="73" width="125" height="25" as="geometry" />
        </mxCell>
        <mxCell id="NGaI6VRKh7LVpuEDAku1-7" value="&lt;font color=&quot;#9673a6&quot;&gt;inversor_alive&lt;/font&gt;" style="html=1;align=left;spacingLeft=4;verticalAlign=top;strokeColor=none;fillColor=none;whiteSpace=wrap;" parent="YzPvoAI_dSwJ99V7AxGa-45" vertex="1">
          <mxGeometry y="98" width="125" height="25" as="geometry" />
        </mxCell>
        <mxCell id="YzPvoAI_dSwJ99V7AxGa-54" value="" style="line;strokeWidth=1;fillColor=none;align=left;verticalAlign=middle;spacingTop=-1;spacingLeft=3;spacingRight=3;rotatable=0;labelPosition=right;points=[];portConstraint=eastwest;" parent="YzPvoAI_dSwJ99V7AxGa-45" vertex="1">
          <mxGeometry y="123" width="125" height="8" as="geometry" />
        </mxCell>
        <mxCell id="YzPvoAI_dSwJ99V7AxGa-55" value="required interfaces" style="html=1;align=center;spacingLeft=4;verticalAlign=top;strokeColor=none;fillColor=none;whiteSpace=wrap;fontStyle=1" parent="YzPvoAI_dSwJ99V7AxGa-45" vertex="1">
          <mxGeometry y="131" width="125" height="25" as="geometry" />
        </mxCell>
        <mxCell id="YzPvoAI_dSwJ99V7AxGa-56" value="&lt;font color=&quot;#9673a6&quot;&gt;Throttle Command&lt;/font&gt;" style="html=1;align=left;spacingLeft=4;verticalAlign=top;strokeColor=none;fillColor=none;whiteSpace=wrap;" parent="YzPvoAI_dSwJ99V7AxGa-45" vertex="1">
          <mxGeometry y="156" width="125" height="25" as="geometry" />
        </mxCell>
        <mxCell id="sZuSeQ67okOJ5UxKlKqD-85" value="&lt;font style=&quot;vertical-align: inherit;&quot;&gt;&lt;font style=&quot;vertical-align: inherit;&quot;&gt;EBS&lt;/font&gt;&lt;/font&gt;" style="swimlane;whiteSpace=wrap;html=1;" parent="sZuSeQ67okOJ5UxKlKqD-192" vertex="1">
          <mxGeometry x="20" y="40" width="120" height="119.5" as="geometry" />
        </mxCell>
        <mxCell id="sZuSeQ67okOJ5UxKlKqD-87" value="&lt;b&gt;&lt;font style=&quot;vertical-align: inherit;&quot;&gt;&lt;font style=&quot;vertical-align: inherit;&quot;&gt;&lt;font style=&quot;vertical-align: inherit;&quot;&gt;&lt;font style=&quot;vertical-align: inherit;&quot;&gt;EBS Solenoide 1&amp;amp;2&lt;/font&gt;&lt;/font&gt;&lt;/font&gt;&lt;/font&gt;&lt;/b&gt;" style="text;strokeColor=default;fillColor=none;align=center;verticalAlign=middle;spacingLeft=4;spacingRight=4;overflow=hidden;points=[[0,0.5],[1,0.5]];portConstraint=eastwest;rotatable=0;whiteSpace=wrap;html=1;strokeWidth=1;" parent="sZuSeQ67okOJ5UxKlKqD-85" vertex="1">
          <mxGeometry x="15" y="79" width="95" height="40" as="geometry" />
        </mxCell>
        <mxCell id="sZuSeQ67okOJ5UxKlKqD-88" value="&lt;b&gt;&lt;font style=&quot;vertical-align: inherit;&quot;&gt;&lt;font style=&quot;vertical-align: inherit;&quot;&gt;&lt;font style=&quot;vertical-align: inherit;&quot;&gt;&lt;font style=&quot;vertical-align: inherit;&quot;&gt;Pneumatic Line Sensor&lt;/font&gt;&lt;/font&gt;&lt;/font&gt;&lt;/font&gt;&lt;/b&gt;" style="text;strokeColor=default;fillColor=none;align=center;verticalAlign=middle;spacingLeft=4;spacingRight=4;overflow=hidden;points=[[0,0.5],[1,0.5]];portConstraint=eastwest;rotatable=0;whiteSpace=wrap;html=1;strokeWidth=1;" parent="sZuSeQ67okOJ5UxKlKqD-85" vertex="1">
          <mxGeometry x="15" y="39" width="95" height="40" as="geometry" />
        </mxCell>
        <mxCell id="sZuSeQ67okOJ5UxKlKqD-197" value="" style="endArrow=classic;html=1;rounded=0;strokeWidth=3;fillColor=#e1d5e7;strokeColor=#000000;startArrow=classic;startFill=1;shape=link;exitX=0;exitY=0.5;exitDx=0;exitDy=0;entryX=0.582;entryY=-0.007;entryDx=0;entryDy=0;entryPerimeter=0;" parent="1" source="sZuSeQ67okOJ5UxKlKqD-85" target="aZmOVXOk3B2EYtA5Geev-26" edge="1">
          <mxGeometry relative="1" as="geometry">
            <mxPoint x="840.5" y="676.38" as="sourcePoint" />
            <mxPoint x="820" y="750" as="targetPoint" />
          </mxGeometry>
        </mxCell>
        <mxCell id="sZuSeQ67okOJ5UxKlKqD-198" value="" style="shape=message;html=1;outlineConnect=0;" parent="sZuSeQ67okOJ5UxKlKqD-197" vertex="1">
          <mxGeometry width="20" height="14" relative="1" as="geometry">
            <mxPoint x="-10" y="-7" as="offset" />
          </mxGeometry>
        </mxCell>
        <mxCell id="sZuSeQ67okOJ5UxKlKqD-205" value="&lt;font style=&quot;vertical-align: inherit;&quot;&gt;&lt;font style=&quot;vertical-align: inherit;&quot;&gt;Sensors&lt;/font&gt;&lt;/font&gt;" style="swimlane;whiteSpace=wrap;html=1;" parent="1" vertex="1">
          <mxGeometry x="1278" y="775.5" width="100" height="80" as="geometry" />
        </mxCell>
        <mxCell id="sZuSeQ67okOJ5UxKlKqD-207" value="&lt;b&gt;&lt;font style=&quot;vertical-align: inherit;&quot;&gt;&lt;font style=&quot;vertical-align: inherit;&quot;&gt;&lt;font style=&quot;vertical-align: inherit;&quot;&gt;&lt;font style=&quot;vertical-align: inherit;&quot;&gt;LiDAR&lt;/font&gt;&lt;/font&gt;&lt;/font&gt;&lt;/font&gt;&lt;/b&gt;" style="text;strokeColor=default;fillColor=none;align=center;verticalAlign=middle;spacingLeft=4;spacingRight=4;overflow=hidden;points=[[0,0.5],[1,0.5]];portConstraint=eastwest;rotatable=0;whiteSpace=wrap;html=1;strokeWidth=1;" parent="sZuSeQ67okOJ5UxKlKqD-205" vertex="1">
          <mxGeometry x="15" y="39" width="85" height="40" as="geometry" />
        </mxCell>
        <mxCell id="GeWjYYyK9IcbD7qX6hDq-1" value="" style="endArrow=classic;html=1;rounded=0;strokeWidth=3;fillColor=#e1d5e7;strokeColor=#9673a6;startArrow=classic;startFill=1;shape=link;entryX=0.25;entryY=1;entryDx=0;entryDy=0;exitX=0.011;exitY=0.051;exitDx=0;exitDy=0;exitPerimeter=0;" edge="1" parent="1" source="YzPvoAI_dSwJ99V7AxGa-1" target="CrHd_MsES68OAFLLBE-K-4">
          <mxGeometry relative="1" as="geometry">
            <mxPoint x="825" y="550" as="sourcePoint" />
            <mxPoint x="981" y="591" as="targetPoint" />
          </mxGeometry>
        </mxCell>
        <mxCell id="GeWjYYyK9IcbD7qX6hDq-2" value="" style="shape=message;html=1;outlineConnect=0;" vertex="1" parent="GeWjYYyK9IcbD7qX6hDq-1">
          <mxGeometry width="20" height="14" relative="1" as="geometry">
            <mxPoint x="-10" y="-7" as="offset" />
          </mxGeometry>
        </mxCell>
      </root>
    </mxGraphModel>
  </diagram>
</mxfile>
